<svg xmlns="http://www.w3.org/2000/svg" viewBox="0 0 300 420" width="300" height="420" shape-rendering="crispEdges">
<defs>
    <linearGradient id="bg-FUN_LEG_01" x1="0" x2="0" y1="0" y2="1">
      <stop offset="0" stop-color="#fff7d6"></stop>
      <stop offset="1" stop-color="#ffe7a0"></stop>
    </linearGradient>
    <linearGradient id="art-FUN_LEG_01" x1="0" x2="0" y1="0" y2="1">
      <stop offset="0" stop-color="#f9f7ee"></stop>
      <stop offset="1" stop-color="#ece5d0"></stop>
    </linearGradient>
  </defs>
<g id="background">
    <rect x="0" y="0" width="300" height="420" fill="url(#bg-FUN_LEG_01)"></rect>
    <rect x="276" y="180" width="2" height="2" fill="#00000008"></rect><rect x="16" y="268" width="2" height="2" fill="#00000008"></rect><rect x="164" y="132" width="2" height="2" fill="#00000008"></rect><rect x="112" y="316" width="2" height="2" fill="#00000008"></rect><rect x="136" y="232" width="2" height="2" fill="#00000008"></rect><rect x="184" y="276" width="2" height="2" fill="#00000008"></rect><rect x="48" y="240" width="2" height="2" fill="#00000008"></rect><rect x="200" y="360" width="2" height="2" fill="#00000008"></rect><rect x="136" y="280" width="2" height="2" fill="#00000008"></rect><rect x="8" y="208" width="2" height="2" fill="#00000008"></rect><rect x="52" y="416" width="2" height="2" fill="#00000008"></rect><rect x="244" y="348" width="2" height="2" fill="#00000008"></rect><rect x="0" y="240" width="2" height="2" fill="#00000008"></rect><rect x="52" y="412" width="2" height="2" fill="#00000008"></rect><rect x="132" y="300" width="2" height="2" fill="#00000008"></rect><rect x="276" y="116" width="2" height="2" fill="#00000008"></rect><rect x="128" y="172" width="2" height="2" fill="#00000008"></rect><rect x="192" y="84" width="2" height="2" fill="#00000008"></rect><rect x="96" y="240" width="2" height="2" fill="#00000008"></rect><rect x="228" y="412" width="2" height="2" fill="#00000008"></rect><rect x="164" y="384" width="2" height="2" fill="#00000008"></rect><rect x="196" y="220" width="2" height="2" fill="#00000008"></rect><rect x="172" y="96" width="2" height="2" fill="#00000008"></rect><rect x="256" y="168" width="2" height="2" fill="#00000008"></rect><rect x="200" y="24" width="2" height="2" fill="#00000008"></rect><rect x="148" y="228" width="2" height="2" fill="#00000008"></rect><rect x="296" y="328" width="2" height="2" fill="#00000008"></rect><rect x="248" y="128" width="2" height="2" fill="#00000008"></rect><rect x="172" y="332" width="2" height="2" fill="#00000008"></rect><rect x="292" y="116" width="2" height="2" fill="#00000008"></rect><rect x="216" y="212" width="2" height="2" fill="#00000008"></rect><rect x="84" y="56" width="2" height="2" fill="#00000008"></rect><rect x="124" y="48" width="2" height="2" fill="#00000008"></rect><rect x="60" y="124" width="2" height="2" fill="#00000008"></rect><rect x="172" y="48" width="2" height="2" fill="#00000008"></rect><rect x="292" y="76" width="2" height="2" fill="#00000008"></rect><rect x="276" y="184" width="2" height="2" fill="#00000008"></rect><rect x="156" y="248" width="2" height="2" fill="#00000008"></rect><rect x="68" y="52" width="2" height="2" fill="#00000008"></rect><rect x="120" y="220" width="2" height="2" fill="#00000008"></rect><rect x="16" y="324" width="2" height="2" fill="#00000008"></rect><rect x="164" y="288" width="2" height="2" fill="#00000008"></rect><rect x="232" y="344" width="2" height="2" fill="#00000008"></rect><rect x="88" y="68" width="2" height="2" fill="#00000008"></rect><rect x="236" y="32" width="2" height="2" fill="#00000008"></rect><rect x="84" y="340" width="2" height="2" fill="#00000008"></rect><rect x="152" y="4" width="2" height="2" fill="#00000008"></rect><rect x="40" y="36" width="2" height="2" fill="#00000008"></rect><rect x="32" y="32" width="2" height="2" fill="#00000008"></rect><rect x="88" y="248" width="2" height="2" fill="#00000008"></rect><rect x="32" y="316" width="2" height="2" fill="#00000008"></rect><rect x="56" y="256" width="2" height="2" fill="#00000008"></rect><rect x="132" y="280" width="2" height="2" fill="#00000008"></rect><rect x="176" y="264" width="2" height="2" fill="#00000008"></rect><rect x="36" y="204" width="2" height="2" fill="#00000008"></rect><rect x="156" y="344" width="2" height="2" fill="#00000008"></rect><rect x="232" y="404" width="2" height="2" fill="#00000008"></rect><rect x="204" y="340" width="2" height="2" fill="#00000008"></rect><rect x="244" y="248" width="2" height="2" fill="#00000008"></rect><rect x="48" y="64" width="2" height="2" fill="#00000008"></rect><rect x="24" y="288" width="2" height="2" fill="#00000008"></rect><rect x="240" y="76" width="2" height="2" fill="#00000008"></rect><rect x="4" y="16" width="2" height="2" fill="#00000008"></rect><rect x="24" y="308" width="2" height="2" fill="#00000008"></rect><rect x="20" y="180" width="2" height="2" fill="#00000008"></rect><rect x="176" y="380" width="2" height="2" fill="#00000008"></rect><rect x="224" y="300" width="2" height="2" fill="#00000008"></rect><rect x="180" y="380" width="2" height="2" fill="#00000008"></rect><rect x="200" y="260" width="2" height="2" fill="#00000008"></rect><rect x="188" y="216" width="2" height="2" fill="#00000008"></rect><rect x="144" y="268" width="2" height="2" fill="#00000008"></rect><rect x="248" y="232" width="2" height="2" fill="#00000008"></rect><rect x="288" y="28" width="2" height="2" fill="#00000008"></rect><rect x="240" y="340" width="2" height="2" fill="#00000008"></rect><rect x="176" y="56" width="2" height="2" fill="#00000008"></rect><rect x="44" y="220" width="2" height="2" fill="#00000008"></rect><rect x="204" y="308" width="2" height="2" fill="#00000008"></rect><rect x="52" y="324" width="2" height="2" fill="#00000008"></rect><rect x="12" y="312" width="2" height="2" fill="#00000008"></rect><rect x="220" y="388" width="2" height="2" fill="#00000008"></rect>
  </g>
<g id="frame"><rect x="0" y="0" width="300" height="4" fill="#92400e"></rect><rect x="0" y="416" width="300" height="4" fill="#92400e"></rect><rect x="0" y="0" width="4" height="420" fill="#92400e"></rect><rect x="296" y="0" width="4" height="420" fill="#92400e"></rect><rect x="4" y="4" width="292" height="8" fill="#fbbf24"></rect><rect x="4" y="408" width="292" height="8" fill="#fbbf24"></rect><rect x="4" y="4" width="8" height="412" fill="#fbbf24"></rect><rect x="288" y="4" width="8" height="412" fill="#fbbf24"></rect><rect x="-4" y="-4" width="308" height="4" fill="#facc1540"></rect><rect x="0" y="0" width="16" height="16" fill="#92400e"></rect><rect x="2" y="2" width="12" height="12" fill="#fde047"></rect><rect x="4" y="4" width="8" height="8" fill="#fff7d6"></rect><rect x="6" y="6" width="4" height="4" fill="#92400e"></rect><rect x="284" y="0" width="16" height="16" fill="#92400e"></rect><rect x="286" y="2" width="12" height="12" fill="#fde047"></rect><rect x="288" y="4" width="8" height="8" fill="#fff7d6"></rect><rect x="290" y="6" width="4" height="4" fill="#92400e"></rect><rect x="0" y="404" width="16" height="16" fill="#92400e"></rect><rect x="2" y="406" width="12" height="12" fill="#fde047"></rect><rect x="4" y="408" width="8" height="8" fill="#fff7d6"></rect><rect x="6" y="410" width="4" height="4" fill="#92400e"></rect><rect x="284" y="404" width="16" height="16" fill="#92400e"></rect><rect x="286" y="406" width="12" height="12" fill="#fde047"></rect><rect x="288" y="408" width="8" height="8" fill="#fff7d6"></rect><rect x="290" y="410" width="4" height="4" fill="#92400e"></rect><rect x="18" y="4" width="4" height="8" fill="#fde047"></rect><rect x="18" y="408" width="4" height="8" fill="#fde047"></rect><rect x="22" y="4" width="4" height="8" fill="#fde047"></rect><rect x="22" y="408" width="4" height="8" fill="#fde047"></rect><rect x="26" y="4" width="4" height="8" fill="#fde047"></rect><rect x="26" y="408" width="4" height="8" fill="#fde047"></rect><rect x="30" y="4" width="4" height="8" fill="#fde047"></rect><rect x="30" y="408" width="4" height="8" fill="#fde047"></rect><rect x="34" y="4" width="4" height="8" fill="#fde047"></rect><rect x="34" y="408" width="4" height="8" fill="#fde047"></rect><rect x="38" y="4" width="4" height="8" fill="#fde047"></rect><rect x="38" y="408" width="4" height="8" fill="#fde047"></rect><rect x="42" y="4" width="4" height="8" fill="#fde047"></rect><rect x="42" y="408" width="4" height="8" fill="#fde047"></rect><rect x="46" y="4" width="4" height="8" fill="#fde047"></rect><rect x="46" y="408" width="4" height="8" fill="#fde047"></rect><rect x="50" y="4" width="4" height="8" fill="#fde047"></rect><rect x="50" y="408" width="4" height="8" fill="#fde047"></rect><rect x="54" y="4" width="4" height="8" fill="#fde047"></rect><rect x="54" y="408" width="4" height="8" fill="#fde047"></rect><rect x="58" y="4" width="4" height="8" fill="#fde047"></rect><rect x="58" y="408" width="4" height="8" fill="#fde047"></rect><rect x="62" y="4" width="4" height="8" fill="#fde047"></rect><rect x="62" y="408" width="4" height="8" fill="#fde047"></rect><rect x="66" y="4" width="4" height="8" fill="#fde047"></rect><rect x="66" y="408" width="4" height="8" fill="#fde047"></rect><rect x="70" y="4" width="4" height="8" fill="#fde047"></rect><rect x="70" y="408" width="4" height="8" fill="#fde047"></rect><rect x="74" y="4" width="4" height="8" fill="#fde047"></rect><rect x="74" y="408" width="4" height="8" fill="#fde047"></rect><rect x="78" y="4" width="4" height="8" fill="#fde047"></rect><rect x="78" y="408" width="4" height="8" fill="#fde047"></rect><rect x="82" y="4" width="4" height="8" fill="#fde047"></rect><rect x="82" y="408" width="4" height="8" fill="#fde047"></rect><rect x="86" y="4" width="4" height="8" fill="#fde047"></rect><rect x="86" y="408" width="4" height="8" fill="#fde047"></rect><rect x="90" y="4" width="4" height="8" fill="#fde047"></rect><rect x="90" y="408" width="4" height="8" fill="#fde047"></rect><rect x="94" y="4" width="4" height="8" fill="#fde047"></rect><rect x="94" y="408" width="4" height="8" fill="#fde047"></rect><rect x="98" y="4" width="4" height="8" fill="#fde047"></rect><rect x="98" y="408" width="4" height="8" fill="#fde047"></rect><rect x="102" y="4" width="4" height="8" fill="#fde047"></rect><rect x="102" y="408" width="4" height="8" fill="#fde047"></rect><rect x="106" y="4" width="4" height="8" fill="#fde047"></rect><rect x="106" y="408" width="4" height="8" fill="#fde047"></rect><rect x="110" y="4" width="4" height="8" fill="#fde047"></rect><rect x="110" y="408" width="4" height="8" fill="#fde047"></rect><rect x="114" y="4" width="4" height="8" fill="#fde047"></rect><rect x="114" y="408" width="4" height="8" fill="#fde047"></rect><rect x="118" y="4" width="4" height="8" fill="#fde047"></rect><rect x="118" y="408" width="4" height="8" fill="#fde047"></rect><rect x="122" y="4" width="4" height="8" fill="#fde047"></rect><rect x="122" y="408" width="4" height="8" fill="#fde047"></rect><rect x="126" y="4" width="4" height="8" fill="#fde047"></rect><rect x="126" y="408" width="4" height="8" fill="#fde047"></rect><rect x="130" y="4" width="4" height="8" fill="#fde047"></rect><rect x="130" y="408" width="4" height="8" fill="#fde047"></rect><rect x="134" y="4" width="4" height="8" fill="#fde047"></rect><rect x="134" y="408" width="4" height="8" fill="#fde047"></rect><rect x="138" y="4" width="4" height="8" fill="#fde047"></rect><rect x="138" y="408" width="4" height="8" fill="#fde047"></rect><rect x="142" y="4" width="4" height="8" fill="#fde047"></rect><rect x="142" y="408" width="4" height="8" fill="#fde047"></rect><rect x="146" y="4" width="4" height="8" fill="#fde047"></rect><rect x="146" y="408" width="4" height="8" fill="#fde047"></rect><rect x="150" y="4" width="4" height="8" fill="#fde047"></rect><rect x="150" y="408" width="4" height="8" fill="#fde047"></rect><rect x="154" y="4" width="4" height="8" fill="#fde047"></rect><rect x="154" y="408" width="4" height="8" fill="#fde047"></rect><rect x="158" y="4" width="4" height="8" fill="#fde047"></rect><rect x="158" y="408" width="4" height="8" fill="#fde047"></rect><rect x="162" y="4" width="4" height="8" fill="#fde047"></rect><rect x="162" y="408" width="4" height="8" fill="#fde047"></rect><rect x="166" y="4" width="4" height="8" fill="#fde047"></rect><rect x="166" y="408" width="4" height="8" fill="#fde047"></rect><rect x="170" y="4" width="4" height="8" fill="#fde047"></rect><rect x="170" y="408" width="4" height="8" fill="#fde047"></rect><rect x="174" y="4" width="4" height="8" fill="#fde047"></rect><rect x="174" y="408" width="4" height="8" fill="#fde047"></rect><rect x="178" y="4" width="4" height="8" fill="#fde047"></rect><rect x="178" y="408" width="4" height="8" fill="#fde047"></rect><rect x="182" y="4" width="4" height="8" fill="#fde047"></rect><rect x="182" y="408" width="4" height="8" fill="#fde047"></rect><rect x="186" y="4" width="4" height="8" fill="#fde047"></rect><rect x="186" y="408" width="4" height="8" fill="#fde047"></rect><rect x="190" y="4" width="4" height="8" fill="#fde047"></rect><rect x="190" y="408" width="4" height="8" fill="#fde047"></rect><rect x="194" y="4" width="4" height="8" fill="#fde047"></rect><rect x="194" y="408" width="4" height="8" fill="#fde047"></rect><rect x="198" y="4" width="4" height="8" fill="#fde047"></rect><rect x="198" y="408" width="4" height="8" fill="#fde047"></rect><rect x="202" y="4" width="4" height="8" fill="#fde047"></rect><rect x="202" y="408" width="4" height="8" fill="#fde047"></rect><rect x="206" y="4" width="4" height="8" fill="#fde047"></rect><rect x="206" y="408" width="4" height="8" fill="#fde047"></rect><rect x="210" y="4" width="4" height="8" fill="#fde047"></rect><rect x="210" y="408" width="4" height="8" fill="#fde047"></rect><rect x="214" y="4" width="4" height="8" fill="#fde047"></rect><rect x="214" y="408" width="4" height="8" fill="#fde047"></rect><rect x="218" y="4" width="4" height="8" fill="#fde047"></rect><rect x="218" y="408" width="4" height="8" fill="#fde047"></rect><rect x="222" y="4" width="4" height="8" fill="#fde047"></rect><rect x="222" y="408" width="4" height="8" fill="#fde047"></rect><rect x="226" y="4" width="4" height="8" fill="#fde047"></rect><rect x="226" y="408" width="4" height="8" fill="#fde047"></rect><rect x="230" y="4" width="4" height="8" fill="#fde047"></rect><rect x="230" y="408" width="4" height="8" fill="#fde047"></rect><rect x="234" y="4" width="4" height="8" fill="#fde047"></rect><rect x="234" y="408" width="4" height="8" fill="#fde047"></rect><rect x="238" y="4" width="4" height="8" fill="#fde047"></rect><rect x="238" y="408" width="4" height="8" fill="#fde047"></rect><rect x="242" y="4" width="4" height="8" fill="#fde047"></rect><rect x="242" y="408" width="4" height="8" fill="#fde047"></rect><rect x="246" y="4" width="4" height="8" fill="#fde047"></rect><rect x="246" y="408" width="4" height="8" fill="#fde047"></rect><rect x="250" y="4" width="4" height="8" fill="#fde047"></rect><rect x="250" y="408" width="4" height="8" fill="#fde047"></rect><rect x="254" y="4" width="4" height="8" fill="#fde047"></rect><rect x="254" y="408" width="4" height="8" fill="#fde047"></rect><rect x="258" y="4" width="4" height="8" fill="#fde047"></rect><rect x="258" y="408" width="4" height="8" fill="#fde047"></rect><rect x="262" y="4" width="4" height="8" fill="#fde047"></rect><rect x="262" y="408" width="4" height="8" fill="#fde047"></rect><rect x="266" y="4" width="4" height="8" fill="#fde047"></rect><rect x="266" y="408" width="4" height="8" fill="#fde047"></rect><rect x="270" y="4" width="4" height="8" fill="#fde047"></rect><rect x="270" y="408" width="4" height="8" fill="#fde047"></rect><rect x="274" y="4" width="4" height="8" fill="#fde047"></rect><rect x="274" y="408" width="4" height="8" fill="#fde047"></rect><rect x="278" y="4" width="4" height="8" fill="#fde047"></rect><rect x="278" y="408" width="4" height="8" fill="#fde047"></rect><rect x="4" y="18" width="8" height="4" fill="#fde047"></rect><rect x="288" y="18" width="8" height="4" fill="#fde047"></rect><rect x="4" y="22" width="8" height="4" fill="#fde047"></rect><rect x="288" y="22" width="8" height="4" fill="#fde047"></rect><rect x="4" y="26" width="8" height="4" fill="#fde047"></rect><rect x="288" y="26" width="8" height="4" fill="#fde047"></rect><rect x="4" y="30" width="8" height="4" fill="#fde047"></rect><rect x="288" y="30" width="8" height="4" fill="#fde047"></rect><rect x="4" y="34" width="8" height="4" fill="#fde047"></rect><rect x="288" y="34" width="8" height="4" fill="#fde047"></rect><rect x="4" y="38" width="8" height="4" fill="#fde047"></rect><rect x="288" y="38" width="8" height="4" fill="#fde047"></rect><rect x="4" y="42" width="8" height="4" fill="#fde047"></rect><rect x="288" y="42" width="8" height="4" fill="#fde047"></rect><rect x="4" y="46" width="8" height="4" fill="#fde047"></rect><rect x="288" y="46" width="8" height="4" fill="#fde047"></rect><rect x="4" y="50" width="8" height="4" fill="#fde047"></rect><rect x="288" y="50" width="8" height="4" fill="#fde047"></rect><rect x="4" y="54" width="8" height="4" fill="#fde047"></rect><rect x="288" y="54" width="8" height="4" fill="#fde047"></rect><rect x="4" y="58" width="8" height="4" fill="#fde047"></rect><rect x="288" y="58" width="8" height="4" fill="#fde047"></rect><rect x="4" y="62" width="8" height="4" fill="#fde047"></rect><rect x="288" y="62" width="8" height="4" fill="#fde047"></rect><rect x="4" y="66" width="8" height="4" fill="#fde047"></rect><rect x="288" y="66" width="8" height="4" fill="#fde047"></rect><rect x="4" y="70" width="8" height="4" fill="#fde047"></rect><rect x="288" y="70" width="8" height="4" fill="#fde047"></rect><rect x="4" y="74" width="8" height="4" fill="#fde047"></rect><rect x="288" y="74" width="8" height="4" fill="#fde047"></rect><rect x="4" y="78" width="8" height="4" fill="#fde047"></rect><rect x="288" y="78" width="8" height="4" fill="#fde047"></rect><rect x="4" y="82" width="8" height="4" fill="#fde047"></rect><rect x="288" y="82" width="8" height="4" fill="#fde047"></rect><rect x="4" y="86" width="8" height="4" fill="#fde047"></rect><rect x="288" y="86" width="8" height="4" fill="#fde047"></rect><rect x="4" y="90" width="8" height="4" fill="#fde047"></rect><rect x="288" y="90" width="8" height="4" fill="#fde047"></rect><rect x="4" y="94" width="8" height="4" fill="#fde047"></rect><rect x="288" y="94" width="8" height="4" fill="#fde047"></rect><rect x="4" y="98" width="8" height="4" fill="#fde047"></rect><rect x="288" y="98" width="8" height="4" fill="#fde047"></rect><rect x="4" y="102" width="8" height="4" fill="#fde047"></rect><rect x="288" y="102" width="8" height="4" fill="#fde047"></rect><rect x="4" y="106" width="8" height="4" fill="#fde047"></rect><rect x="288" y="106" width="8" height="4" fill="#fde047"></rect><rect x="4" y="110" width="8" height="4" fill="#fde047"></rect><rect x="288" y="110" width="8" height="4" fill="#fde047"></rect><rect x="4" y="114" width="8" height="4" fill="#fde047"></rect><rect x="288" y="114" width="8" height="4" fill="#fde047"></rect><rect x="4" y="118" width="8" height="4" fill="#fde047"></rect><rect x="288" y="118" width="8" height="4" fill="#fde047"></rect><rect x="4" y="122" width="8" height="4" fill="#fde047"></rect><rect x="288" y="122" width="8" height="4" fill="#fde047"></rect><rect x="4" y="126" width="8" height="4" fill="#fde047"></rect><rect x="288" y="126" width="8" height="4" fill="#fde047"></rect><rect x="4" y="130" width="8" height="4" fill="#fde047"></rect><rect x="288" y="130" width="8" height="4" fill="#fde047"></rect><rect x="4" y="134" width="8" height="4" fill="#fde047"></rect><rect x="288" y="134" width="8" height="4" fill="#fde047"></rect><rect x="4" y="138" width="8" height="4" fill="#fde047"></rect><rect x="288" y="138" width="8" height="4" fill="#fde047"></rect><rect x="4" y="142" width="8" height="4" fill="#fde047"></rect><rect x="288" y="142" width="8" height="4" fill="#fde047"></rect><rect x="4" y="146" width="8" height="4" fill="#fde047"></rect><rect x="288" y="146" width="8" height="4" fill="#fde047"></rect><rect x="4" y="150" width="8" height="4" fill="#fde047"></rect><rect x="288" y="150" width="8" height="4" fill="#fde047"></rect><rect x="4" y="154" width="8" height="4" fill="#fde047"></rect><rect x="288" y="154" width="8" height="4" fill="#fde047"></rect><rect x="4" y="158" width="8" height="4" fill="#fde047"></rect><rect x="288" y="158" width="8" height="4" fill="#fde047"></rect><rect x="4" y="162" width="8" height="4" fill="#fde047"></rect><rect x="288" y="162" width="8" height="4" fill="#fde047"></rect><rect x="4" y="166" width="8" height="4" fill="#fde047"></rect><rect x="288" y="166" width="8" height="4" fill="#fde047"></rect><rect x="4" y="170" width="8" height="4" fill="#fde047"></rect><rect x="288" y="170" width="8" height="4" fill="#fde047"></rect><rect x="4" y="174" width="8" height="4" fill="#fde047"></rect><rect x="288" y="174" width="8" height="4" fill="#fde047"></rect><rect x="4" y="178" width="8" height="4" fill="#fde047"></rect><rect x="288" y="178" width="8" height="4" fill="#fde047"></rect><rect x="4" y="182" width="8" height="4" fill="#fde047"></rect><rect x="288" y="182" width="8" height="4" fill="#fde047"></rect><rect x="4" y="186" width="8" height="4" fill="#fde047"></rect><rect x="288" y="186" width="8" height="4" fill="#fde047"></rect><rect x="4" y="190" width="8" height="4" fill="#fde047"></rect><rect x="288" y="190" width="8" height="4" fill="#fde047"></rect><rect x="4" y="194" width="8" height="4" fill="#fde047"></rect><rect x="288" y="194" width="8" height="4" fill="#fde047"></rect><rect x="4" y="198" width="8" height="4" fill="#fde047"></rect><rect x="288" y="198" width="8" height="4" fill="#fde047"></rect><rect x="4" y="202" width="8" height="4" fill="#fde047"></rect><rect x="288" y="202" width="8" height="4" fill="#fde047"></rect><rect x="4" y="206" width="8" height="4" fill="#fde047"></rect><rect x="288" y="206" width="8" height="4" fill="#fde047"></rect><rect x="4" y="210" width="8" height="4" fill="#fde047"></rect><rect x="288" y="210" width="8" height="4" fill="#fde047"></rect><rect x="4" y="214" width="8" height="4" fill="#fde047"></rect><rect x="288" y="214" width="8" height="4" fill="#fde047"></rect><rect x="4" y="218" width="8" height="4" fill="#fde047"></rect><rect x="288" y="218" width="8" height="4" fill="#fde047"></rect><rect x="4" y="222" width="8" height="4" fill="#fde047"></rect><rect x="288" y="222" width="8" height="4" fill="#fde047"></rect><rect x="4" y="226" width="8" height="4" fill="#fde047"></rect><rect x="288" y="226" width="8" height="4" fill="#fde047"></rect><rect x="4" y="230" width="8" height="4" fill="#fde047"></rect><rect x="288" y="230" width="8" height="4" fill="#fde047"></rect><rect x="4" y="234" width="8" height="4" fill="#fde047"></rect><rect x="288" y="234" width="8" height="4" fill="#fde047"></rect><rect x="4" y="238" width="8" height="4" fill="#fde047"></rect><rect x="288" y="238" width="8" height="4" fill="#fde047"></rect><rect x="4" y="242" width="8" height="4" fill="#fde047"></rect><rect x="288" y="242" width="8" height="4" fill="#fde047"></rect><rect x="4" y="246" width="8" height="4" fill="#fde047"></rect><rect x="288" y="246" width="8" height="4" fill="#fde047"></rect><rect x="4" y="250" width="8" height="4" fill="#fde047"></rect><rect x="288" y="250" width="8" height="4" fill="#fde047"></rect><rect x="4" y="254" width="8" height="4" fill="#fde047"></rect><rect x="288" y="254" width="8" height="4" fill="#fde047"></rect><rect x="4" y="258" width="8" height="4" fill="#fde047"></rect><rect x="288" y="258" width="8" height="4" fill="#fde047"></rect><rect x="4" y="262" width="8" height="4" fill="#fde047"></rect><rect x="288" y="262" width="8" height="4" fill="#fde047"></rect><rect x="4" y="266" width="8" height="4" fill="#fde047"></rect><rect x="288" y="266" width="8" height="4" fill="#fde047"></rect><rect x="4" y="270" width="8" height="4" fill="#fde047"></rect><rect x="288" y="270" width="8" height="4" fill="#fde047"></rect><rect x="4" y="274" width="8" height="4" fill="#fde047"></rect><rect x="288" y="274" width="8" height="4" fill="#fde047"></rect><rect x="4" y="278" width="8" height="4" fill="#fde047"></rect><rect x="288" y="278" width="8" height="4" fill="#fde047"></rect><rect x="4" y="282" width="8" height="4" fill="#fde047"></rect><rect x="288" y="282" width="8" height="4" fill="#fde047"></rect><rect x="4" y="286" width="8" height="4" fill="#fde047"></rect><rect x="288" y="286" width="8" height="4" fill="#fde047"></rect><rect x="4" y="290" width="8" height="4" fill="#fde047"></rect><rect x="288" y="290" width="8" height="4" fill="#fde047"></rect><rect x="4" y="294" width="8" height="4" fill="#fde047"></rect><rect x="288" y="294" width="8" height="4" fill="#fde047"></rect><rect x="4" y="298" width="8" height="4" fill="#fde047"></rect><rect x="288" y="298" width="8" height="4" fill="#fde047"></rect><rect x="4" y="302" width="8" height="4" fill="#fde047"></rect><rect x="288" y="302" width="8" height="4" fill="#fde047"></rect><rect x="4" y="306" width="8" height="4" fill="#fde047"></rect><rect x="288" y="306" width="8" height="4" fill="#fde047"></rect><rect x="4" y="310" width="8" height="4" fill="#fde047"></rect><rect x="288" y="310" width="8" height="4" fill="#fde047"></rect><rect x="4" y="314" width="8" height="4" fill="#fde047"></rect><rect x="288" y="314" width="8" height="4" fill="#fde047"></rect><rect x="4" y="318" width="8" height="4" fill="#fde047"></rect><rect x="288" y="318" width="8" height="4" fill="#fde047"></rect><rect x="4" y="322" width="8" height="4" fill="#fde047"></rect><rect x="288" y="322" width="8" height="4" fill="#fde047"></rect><rect x="4" y="326" width="8" height="4" fill="#fde047"></rect><rect x="288" y="326" width="8" height="4" fill="#fde047"></rect><rect x="4" y="330" width="8" height="4" fill="#fde047"></rect><rect x="288" y="330" width="8" height="4" fill="#fde047"></rect><rect x="4" y="334" width="8" height="4" fill="#fde047"></rect><rect x="288" y="334" width="8" height="4" fill="#fde047"></rect><rect x="4" y="338" width="8" height="4" fill="#fde047"></rect><rect x="288" y="338" width="8" height="4" fill="#fde047"></rect><rect x="4" y="342" width="8" height="4" fill="#fde047"></rect><rect x="288" y="342" width="8" height="4" fill="#fde047"></rect><rect x="4" y="346" width="8" height="4" fill="#fde047"></rect><rect x="288" y="346" width="8" height="4" fill="#fde047"></rect><rect x="4" y="350" width="8" height="4" fill="#fde047"></rect><rect x="288" y="350" width="8" height="4" fill="#fde047"></rect><rect x="4" y="354" width="8" height="4" fill="#fde047"></rect><rect x="288" y="354" width="8" height="4" fill="#fde047"></rect><rect x="4" y="358" width="8" height="4" fill="#fde047"></rect><rect x="288" y="358" width="8" height="4" fill="#fde047"></rect><rect x="4" y="362" width="8" height="4" fill="#fde047"></rect><rect x="288" y="362" width="8" height="4" fill="#fde047"></rect><rect x="4" y="366" width="8" height="4" fill="#fde047"></rect><rect x="288" y="366" width="8" height="4" fill="#fde047"></rect><rect x="4" y="370" width="8" height="4" fill="#fde047"></rect><rect x="288" y="370" width="8" height="4" fill="#fde047"></rect><rect x="4" y="374" width="8" height="4" fill="#fde047"></rect><rect x="288" y="374" width="8" height="4" fill="#fde047"></rect><rect x="4" y="378" width="8" height="4" fill="#fde047"></rect><rect x="288" y="378" width="8" height="4" fill="#fde047"></rect><rect x="4" y="382" width="8" height="4" fill="#fde047"></rect><rect x="288" y="382" width="8" height="4" fill="#fde047"></rect><rect x="4" y="386" width="8" height="4" fill="#fde047"></rect><rect x="288" y="386" width="8" height="4" fill="#fde047"></rect><rect x="4" y="390" width="8" height="4" fill="#fde047"></rect><rect x="288" y="390" width="8" height="4" fill="#fde047"></rect><rect x="4" y="394" width="8" height="4" fill="#fde047"></rect><rect x="288" y="394" width="8" height="4" fill="#fde047"></rect><rect x="4" y="398" width="8" height="4" fill="#fde047"></rect><rect x="288" y="398" width="8" height="4" fill="#fde047"></rect></g>
<g id="mainIllustration">
    <rect x="16" y="76" width="268" height="184" fill="url(#art-FUN_LEG_01)"></rect>
    <rect x="16" y="76" width="268" height="4" fill="#92400e40"></rect>
    <rect x="16" y="76" width="4" height="184" fill="#92400e40"></rect>
    <rect x="280" y="76" width="4" height="184" fill="#92400e40"></rect>
    <rect x="16" y="256" width="268" height="4" fill="#92400e40"></rect>
    <rect x="22" y="86" width="256" height="24" fill="#fef3c7"></rect><rect x="22" y="110" width="256" height="24" fill="#fde047"></rect><rect x="22" y="134" width="256" height="32" fill="#facc15"></rect><rect x="22" y="166" width="256" height="8" fill="#a06a31"></rect><rect x="22" y="174" width="256" height="32" fill="#d4a574"></rect><rect x="22" y="206" width="256" height="24" fill="#a06a31"></rect><rect x="38" y="182" width="24" height="8" fill="#facc15"></rect><rect x="78" y="198" width="32" height="8" fill="#b45309"></rect><rect x="198" y="182" width="32" height="8" fill="#facc15"></rect><rect x="222" y="214" width="24" height="8" fill="#b45309"></rect><rect x="30" y="222" width="40" height="8" fill="#b45309"></rect><rect x="206" y="150" width="24" height="24" fill="#ffffff"></rect><rect x="214" y="158" width="8" height="8" fill="#fef3c7"></rect><rect x="126" y="118" width="8" height="8" fill="#1f2733"></rect><rect x="134" y="118" width="8" height="8" fill="#1f2733"></rect><rect x="134" y="118" width="8" height="8" fill="#facc15"></rect><rect x="142" y="118" width="8" height="8" fill="#ea580c"></rect><rect x="150" y="118" width="8" height="8" fill="#ea580c"></rect><rect x="126" y="110" width="8" height="8" fill="#1f2733"></rect><rect x="126" y="126" width="8" height="8" fill="#1f2733"></rect><rect x="118" y="126" width="8" height="8" fill="#1f2733"></rect><rect x="118" y="134" width="8" height="8" fill="#1f2733"></rect><rect x="110" y="134" width="8" height="8" fill="#1f2733"></rect><rect x="110" y="142" width="8" height="8" fill="#1f2733"></rect><rect x="102" y="142" width="8" height="8" fill="#1f2733"></rect><rect x="102" y="150" width="8" height="8" fill="#1f2733"></rect><rect x="110" y="150" width="8" height="8" fill="#1f2733"></rect><rect x="110" y="158" width="16" height="8" fill="#1f2733"></rect><rect x="86" y="166" width="96" height="8" fill="#1f2733"></rect><rect x="78" y="174" width="112" height="8" fill="#1f2733"></rect><rect x="70" y="182" width="128" height="8" fill="#1f2733"></rect><rect x="78" y="190" width="112" height="8" fill="#1f2733"></rect><rect x="182" y="174" width="8" height="8" fill="#1f2733"></rect><rect x="190" y="166" width="8" height="8" fill="#1f2733"></rect><rect x="198" y="166" width="8" height="8" fill="#1f2733"></rect><rect x="126" y="174" width="40" height="8" fill="#6b7280"></rect><rect x="134" y="182" width="24" height="8" fill="#6b7280"></rect><rect x="86" y="198" width="96" height="8" fill="#36404e"></rect><rect x="102" y="206" width="64" height="8" fill="#5c3a14"></rect><rect x="38" y="102" width="8" height="8" fill="#facc15"></rect><rect x="46" y="110" width="8" height="8" fill="#b45309"></rect><rect x="38" y="118" width="8" height="8" fill="#facc15"></rect><rect x="246" y="118" width="8" height="8" fill="#facc15"></rect><rect x="254" y="126" width="8" height="8" fill="#b45309"></rect><rect x="62" y="150" width="8" height="8" fill="#facc15"></rect><rect x="238" y="142" width="8" height="8" fill="#facc15"></rect><rect x="166" y="102" width="8" height="8" fill="#ffffff"></rect><rect x="222" y="102" width="8" height="8" fill="#ffffff"></rect>
  </g>
<g id="header">
    <rect x="12" y="12" width="276" height="56" fill="#ffffffcc"></rect>
    <rect x="12" y="66" width="276" height="2" fill="#92400e"></rect>
  </g>
<g id="typeIcon"><rect x="18" y="18" width="40" height="40" fill="#0d9488"></rect><rect x="20" y="20" width="36" height="36" fill="#a5f3e1"></rect><rect x="20" y="20" width="36" height="4" fill="#ffffff80"></rect><rect x="36" y="24" width="4" height="4" fill="#115e59"></rect><rect x="36" y="48" width="4" height="4" fill="#115e59"></rect><rect x="24" y="36" width="4" height="4" fill="#115e59"></rect><rect x="48" y="36" width="4" height="4" fill="#115e59"></rect><rect x="28" y="28" width="4" height="4" fill="#115e59"></rect><rect x="44" y="28" width="4" height="4" fill="#115e59"></rect><rect x="28" y="44" width="4" height="4" fill="#115e59"></rect><rect x="44" y="44" width="4" height="4" fill="#115e59"></rect><rect x="30" y="30" width="16" height="16" fill="#0d9488"></rect><rect x="32" y="32" width="12" height="12" fill="#115e59"></rect><rect x="36" y="36" width="4" height="4" fill="#a5f3e1"></rect></g>
<g id="rarityBadge"><rect x="250" y="18" width="40" height="40" fill="#92400e"></rect><rect x="252" y="20" width="36" height="36" fill="#facc15"></rect><rect x="252" y="20" width="36" height="4" fill="#ffffff60"></rect><rect x="268" y="26" width="4" height="4" fill="#ffffffcc"></rect><rect x="264" y="30" width="12" height="4" fill="#78350f"></rect><rect x="262" y="34" width="16" height="4" fill="#78350f"></rect><rect x="264" y="38" width="12" height="4" fill="#78350f"></rect><rect x="266" y="42" width="8" height="4" fill="#78350f"></rect><rect x="268" y="46" width="4" height="4" fill="#78350f"></rect><rect x="266" y="32" width="2" height="4" fill="#ffffffaa"></rect><rect x="256" y="62" width="4" height="4" fill="#92400e"></rect><rect x="262" y="62" width="4" height="4" fill="#92400e"></rect><rect x="268" y="62" width="4" height="4" fill="#92400e"></rect><rect x="274" y="62" width="4" height="4" fill="#92400e"></rect><rect x="280" y="62" width="4" height="4" fill="#92400e"></rect></g>
<g id="headerText">
    <text x="64" y="36" font-family="&#39;PingFang SC&#39;, &#39;Microsoft YaHei&#39;, system-ui, sans-serif" font-size="20" font-weight="700" fill="#1f2733">黑天鹅基金</text>
    <text x="64" y="56" font-family="ui-monospace, &#39;SF Mono&#39;, Menlo, monospace" font-size="9" font-weight="600" fill="#0d9488" letter-spacing="2">FUNCTION · 传奇</text>
  </g>
<g id="effectArea"><rect x="16" y="271" width="28" height="28" fill="#1f2733"></rect><rect x="18" y="273" width="24" height="24" fill="#0d9488"></rect><rect x="20" y="273" width="20" height="4" fill="#ffffff80"></rect><text x="30" y="290" text-anchor="middle" font-family="ui-monospace, &#39;SF Mono&#39;, Menlo, monospace" font-size="16" font-weight="800" fill="#fff">4</text><text x="30" y="307" text-anchor="middle" font-family="ui-monospace, &#39;SF Mono&#39;, Menlo, monospace" font-size="7" font-weight="700" fill="#6b7280" letter-spacing="1">AP</text><rect x="56" y="271" width="224" height="28" fill="#ffffff"></rect><rect x="56" y="271" width="224" height="2" fill="#0d9488"></rect><rect x="56" y="297" width="224" height="2" fill="#a5f3e1"></rect><rect x="56" y="271" width="2" height="28" fill="#0d9488"></rect><rect x="278" y="271" width="2" height="28" fill="#0d9488"></rect><rect x="62" y="277" width="16" height="16" fill="#a5f3e1"></rect><rect x="64" y="279" width="12" height="12" fill="#0d9488"></rect><text x="86" y="290" font-family="&#39;PingFang SC&#39;, system-ui, sans-serif" font-size="13" font-weight="700" fill="#1f2733">整线 ×3 / 月度 +¥30</text></g>
<g id="description">
    <text x="150" y="328" text-anchor="middle" font-family="&#39;PingFang SC&#39;, system-ui, sans-serif" font-size="13" font-weight="500" fill="#1f2733">产线乘区 ×3，月度 +¥30</text>
  </g>
<g id="flavorText">
    <line x1="40" y1="346" x2="260" y2="346" stroke="#fbbf24" stroke-width="1" stroke-dasharray="2 3"></line>
    <text x="150" y="368" text-anchor="middle" font-family="&#39;PingFang SC&#39;, system-ui, sans-serif" font-style="italic" font-size="11" fill="#6b7280">&#34;反脆弱才是真正的护城河&#34;</text>
  </g>
<g id="decorations"><rect x="16" y="394" width="60" height="4" fill="#0d9488"></rect><rect x="76" y="394" width="60" height="4" fill="#fbbf24"></rect><rect x="136" y="394" width="40" height="4" fill="#a5f3e1"></rect><rect x="176" y="394" width="60" height="4" fill="#facc15"></rect><rect x="236" y="394" width="56" height="4" fill="#115e59"></rect><text x="282" y="406" text-anchor="end" font-family="ui-monospace, &#39;SF Mono&#39;, Menlo, monospace" font-size="7" fill="#9aa3b3" letter-spacing="1">FUN_LEG_01</text><rect x="18" y="402" width="4" height="4" fill="#92400e"></rect><rect x="26" y="402" width="4" height="4" fill="#0d9488"></rect><rect x="34" y="402" width="4" height="4" fill="#facc15"></rect></g>
</svg>