<svg xmlns="http://www.w3.org/2000/svg" viewBox="0 0 300 420" width="300" height="420" shape-rendering="crispEdges">
<defs>
    <linearGradient id="bg-SRV_10" x1="0" x2="0" y1="0" y2="1">
      <stop offset="0" stop-color="#eef5fc"></stop>
      <stop offset="1" stop-color="#dceaf8"></stop>
    </linearGradient>
    <linearGradient id="art-SRV_10" x1="0" x2="0" y1="0" y2="1">
      <stop offset="0" stop-color="#f9f7ee"></stop>
      <stop offset="1" stop-color="#ece5d0"></stop>
    </linearGradient>
  </defs>
<g id="background">
    <rect x="0" y="0" width="300" height="420" fill="url(#bg-SRV_10)"></rect>
    <rect x="276" y="180" width="2" height="2" fill="#00000008"></rect><rect x="16" y="268" width="2" height="2" fill="#00000008"></rect><rect x="164" y="132" width="2" height="2" fill="#00000008"></rect><rect x="112" y="316" width="2" height="2" fill="#00000008"></rect><rect x="136" y="232" width="2" height="2" fill="#00000008"></rect><rect x="184" y="276" width="2" height="2" fill="#00000008"></rect><rect x="48" y="240" width="2" height="2" fill="#00000008"></rect><rect x="200" y="360" width="2" height="2" fill="#00000008"></rect><rect x="136" y="280" width="2" height="2" fill="#00000008"></rect><rect x="8" y="208" width="2" height="2" fill="#00000008"></rect><rect x="52" y="416" width="2" height="2" fill="#00000008"></rect><rect x="244" y="348" width="2" height="2" fill="#00000008"></rect><rect x="0" y="240" width="2" height="2" fill="#00000008"></rect><rect x="52" y="412" width="2" height="2" fill="#00000008"></rect><rect x="132" y="300" width="2" height="2" fill="#00000008"></rect><rect x="276" y="116" width="2" height="2" fill="#00000008"></rect><rect x="128" y="172" width="2" height="2" fill="#00000008"></rect><rect x="192" y="84" width="2" height="2" fill="#00000008"></rect><rect x="96" y="240" width="2" height="2" fill="#00000008"></rect><rect x="228" y="412" width="2" height="2" fill="#00000008"></rect><rect x="164" y="384" width="2" height="2" fill="#00000008"></rect><rect x="196" y="220" width="2" height="2" fill="#00000008"></rect><rect x="172" y="96" width="2" height="2" fill="#00000008"></rect><rect x="256" y="168" width="2" height="2" fill="#00000008"></rect><rect x="200" y="24" width="2" height="2" fill="#00000008"></rect><rect x="148" y="228" width="2" height="2" fill="#00000008"></rect><rect x="296" y="328" width="2" height="2" fill="#00000008"></rect><rect x="248" y="128" width="2" height="2" fill="#00000008"></rect><rect x="172" y="332" width="2" height="2" fill="#00000008"></rect><rect x="292" y="116" width="2" height="2" fill="#00000008"></rect><rect x="216" y="212" width="2" height="2" fill="#00000008"></rect><rect x="84" y="56" width="2" height="2" fill="#00000008"></rect><rect x="124" y="48" width="2" height="2" fill="#00000008"></rect><rect x="60" y="124" width="2" height="2" fill="#00000008"></rect><rect x="172" y="48" width="2" height="2" fill="#00000008"></rect><rect x="292" y="76" width="2" height="2" fill="#00000008"></rect><rect x="276" y="184" width="2" height="2" fill="#00000008"></rect><rect x="156" y="248" width="2" height="2" fill="#00000008"></rect><rect x="68" y="52" width="2" height="2" fill="#00000008"></rect><rect x="120" y="220" width="2" height="2" fill="#00000008"></rect><rect x="16" y="324" width="2" height="2" fill="#00000008"></rect><rect x="164" y="288" width="2" height="2" fill="#00000008"></rect><rect x="232" y="344" width="2" height="2" fill="#00000008"></rect><rect x="88" y="68" width="2" height="2" fill="#00000008"></rect><rect x="236" y="32" width="2" height="2" fill="#00000008"></rect><rect x="84" y="340" width="2" height="2" fill="#00000008"></rect><rect x="152" y="4" width="2" height="2" fill="#00000008"></rect><rect x="40" y="36" width="2" height="2" fill="#00000008"></rect><rect x="32" y="32" width="2" height="2" fill="#00000008"></rect><rect x="88" y="248" width="2" height="2" fill="#00000008"></rect><rect x="32" y="316" width="2" height="2" fill="#00000008"></rect><rect x="56" y="256" width="2" height="2" fill="#00000008"></rect><rect x="132" y="280" width="2" height="2" fill="#00000008"></rect><rect x="176" y="264" width="2" height="2" fill="#00000008"></rect><rect x="36" y="204" width="2" height="2" fill="#00000008"></rect><rect x="156" y="344" width="2" height="2" fill="#00000008"></rect><rect x="232" y="404" width="2" height="2" fill="#00000008"></rect><rect x="204" y="340" width="2" height="2" fill="#00000008"></rect><rect x="244" y="248" width="2" height="2" fill="#00000008"></rect><rect x="48" y="64" width="2" height="2" fill="#00000008"></rect><rect x="24" y="288" width="2" height="2" fill="#00000008"></rect><rect x="240" y="76" width="2" height="2" fill="#00000008"></rect><rect x="4" y="16" width="2" height="2" fill="#00000008"></rect><rect x="24" y="308" width="2" height="2" fill="#00000008"></rect><rect x="20" y="180" width="2" height="2" fill="#00000008"></rect><rect x="176" y="380" width="2" height="2" fill="#00000008"></rect><rect x="224" y="300" width="2" height="2" fill="#00000008"></rect><rect x="180" y="380" width="2" height="2" fill="#00000008"></rect><rect x="200" y="260" width="2" height="2" fill="#00000008"></rect><rect x="188" y="216" width="2" height="2" fill="#00000008"></rect><rect x="144" y="268" width="2" height="2" fill="#00000008"></rect><rect x="248" y="232" width="2" height="2" fill="#00000008"></rect><rect x="288" y="28" width="2" height="2" fill="#00000008"></rect><rect x="240" y="340" width="2" height="2" fill="#00000008"></rect><rect x="176" y="56" width="2" height="2" fill="#00000008"></rect><rect x="44" y="220" width="2" height="2" fill="#00000008"></rect><rect x="204" y="308" width="2" height="2" fill="#00000008"></rect><rect x="52" y="324" width="2" height="2" fill="#00000008"></rect><rect x="12" y="312" width="2" height="2" fill="#00000008"></rect><rect x="220" y="388" width="2" height="2" fill="#00000008"></rect>
  </g>
<g id="frame"><rect x="0" y="0" width="300" height="4" fill="#1d4ed8"></rect><rect x="0" y="416" width="300" height="4" fill="#1d4ed8"></rect><rect x="0" y="0" width="4" height="420" fill="#1d4ed8"></rect><rect x="296" y="0" width="4" height="420" fill="#1d4ed8"></rect><rect x="4" y="4" width="292" height="8" fill="#60a5fa"></rect><rect x="4" y="408" width="292" height="8" fill="#60a5fa"></rect><rect x="4" y="4" width="8" height="412" fill="#60a5fa"></rect><rect x="288" y="4" width="8" height="412" fill="#60a5fa"></rect><rect x="4" y="4" width="8" height="8" fill="#2563eb"></rect><rect x="6" y="6" width="4" height="4" fill="#ffffffaa"></rect><rect x="288" y="4" width="8" height="8" fill="#2563eb"></rect><rect x="290" y="6" width="4" height="4" fill="#ffffffaa"></rect><rect x="4" y="408" width="8" height="8" fill="#2563eb"></rect><rect x="6" y="410" width="4" height="4" fill="#ffffffaa"></rect><rect x="288" y="408" width="8" height="8" fill="#2563eb"></rect><rect x="290" y="410" width="4" height="4" fill="#ffffffaa"></rect><rect x="12" y="12" width="276" height="2" fill="#2563eb"></rect><rect x="12" y="406" width="276" height="2" fill="#2563eb"></rect><rect x="12" y="12" width="2" height="396" fill="#2563eb"></rect><rect x="286" y="12" width="2" height="396" fill="#2563eb"></rect></g>
<g id="mainIllustration">
    <rect x="16" y="76" width="268" height="184" fill="url(#art-SRV_10)"></rect>
    <rect x="16" y="76" width="268" height="4" fill="#1d4ed840"></rect>
    <rect x="16" y="76" width="4" height="184" fill="#1d4ed840"></rect>
    <rect x="280" y="76" width="4" height="184" fill="#1d4ed840"></rect>
    <rect x="16" y="256" width="268" height="4" fill="#1d4ed840"></rect>
    <rect x="22" y="86" width="256" height="136" fill="#fed7aa"></rect><rect x="22" y="222" width="256" height="24" fill="#a06a31"></rect><rect x="54" y="190" width="112" height="8" fill="#1f2733"></rect><rect x="54" y="214" width="112" height="8" fill="#1f2733"></rect><rect x="54" y="190" width="8" height="32" fill="#1f2733"></rect><rect x="158" y="190" width="8" height="32" fill="#1f2733"></rect><rect x="62" y="198" width="96" height="16" fill="#b91c1c"></rect><rect x="62" y="198" width="96" height="8" fill="#facc15"></rect><rect x="46" y="158" width="112" height="8" fill="#1f2733"></rect><rect x="46" y="182" width="112" height="8" fill="#1f2733"></rect><rect x="46" y="158" width="8" height="32" fill="#1f2733"></rect><rect x="150" y="158" width="8" height="32" fill="#1f2733"></rect><rect x="54" y="166" width="96" height="16" fill="#2563eb"></rect><rect x="54" y="166" width="96" height="8" fill="#facc15"></rect><rect x="62" y="126" width="112" height="8" fill="#1f2733"></rect><rect x="62" y="150" width="112" height="8" fill="#1f2733"></rect><rect x="62" y="126" width="8" height="32" fill="#1f2733"></rect><rect x="166" y="126" width="8" height="32" fill="#1f2733"></rect><rect x="70" y="134" width="96" height="16" fill="#16a34a"></rect><rect x="70" y="134" width="96" height="8" fill="#facc15"></rect><rect x="198" y="118" width="48" height="96" fill="#f4ebd0"></rect><rect x="190" y="126" width="8" height="8" fill="#f4ebd0"></rect><rect x="246" y="126" width="8" height="8" fill="#f4ebd0"></rect><rect x="190" y="206" width="8" height="8" fill="#f4ebd0"></rect><rect x="246" y="206" width="8" height="8" fill="#f4ebd0"></rect><rect x="198" y="118" width="48" height="8" fill="#a06a31"></rect><rect x="198" y="206" width="48" height="8" fill="#a06a31"></rect><rect x="206" y="142" width="32" height="8" fill="#1f2733"></rect><rect x="206" y="158" width="32" height="8" fill="#1f2733"></rect><rect x="206" y="174" width="24" height="8" fill="#1f2733"></rect><rect x="206" y="190" width="32" height="8" fill="#1f2733"></rect><rect x="214" y="198" width="16" height="16" fill="#b91c1c"></rect><rect x="222" y="94" width="8" height="8" fill="#f4ebd0"></rect><rect x="230" y="102" width="8" height="8" fill="#f4ebd0"></rect><rect x="238" y="110" width="8" height="8" fill="#f4ebd0"></rect><rect x="214" y="102" width="8" height="8" fill="#cfd5e0"></rect><rect x="222" y="110" width="8" height="8" fill="#cfd5e0"></rect><rect x="230" y="118" width="8" height="8" fill="#cfd5e0"></rect><rect x="206" y="126" width="8" height="8" fill="#1f2733"></rect><rect x="198" y="134" width="8" height="8" fill="#1f2733"></rect><rect x="190" y="142" width="8" height="8" fill="#36404e"></rect>
  </g>
<g id="header">
    <rect x="12" y="12" width="276" height="56" fill="#ffffffcc"></rect>
    <rect x="12" y="66" width="276" height="2" fill="#1d4ed8"></rect>
  </g>
<g id="typeIcon"><rect x="18" y="18" width="40" height="40" fill="#ea580c"></rect><rect x="20" y="20" width="36" height="36" fill="#fed7aa"></rect><rect x="20" y="20" width="36" height="4" fill="#ffffff80"></rect><rect x="33" y="28" width="10" height="2" fill="#9a3412"></rect><rect x="33" y="28" width="2" height="4" fill="#9a3412"></rect><rect x="41" y="28" width="2" height="4" fill="#9a3412"></rect><rect x="24" y="32" width="28" height="20" fill="#9a3412"></rect><rect x="26" y="34" width="24" height="16" fill="#ea580c"></rect><rect x="26" y="34" width="24" height="4" fill="#ffffff60"></rect><rect x="36" y="40" width="4" height="4" fill="#9a3412"></rect><rect x="37" y="41" width="2" height="2" fill="#fed7aa"></rect></g>
<g id="rarityBadge"><rect x="250" y="18" width="40" height="40" fill="#1d4ed8"></rect><rect x="252" y="20" width="36" height="36" fill="#3b82f6"></rect><rect x="252" y="20" width="36" height="4" fill="#ffffff60"></rect><rect x="268" y="26" width="4" height="4" fill="#ffffffcc"></rect><rect x="264" y="30" width="12" height="4" fill="#1e3a8a"></rect><rect x="262" y="34" width="16" height="4" fill="#1e3a8a"></rect><rect x="264" y="38" width="12" height="4" fill="#1e3a8a"></rect><rect x="266" y="42" width="8" height="4" fill="#1e3a8a"></rect><rect x="268" y="46" width="4" height="4" fill="#1e3a8a"></rect><rect x="266" y="32" width="2" height="4" fill="#ffffffaa"></rect><rect x="256" y="62" width="4" height="4" fill="#1d4ed8"></rect><rect x="262" y="62" width="4" height="4" fill="#1d4ed8"></rect></g>
<g id="headerText">
    <text x="64" y="36" font-family="&#39;PingFang SC&#39;, &#39;Microsoft YaHei&#39;, system-ui, sans-serif" font-size="20" font-weight="700" fill="#1f2733">法律团队</text>
    <text x="64" y="56" font-family="ui-monospace, &#39;SF Mono&#39;, Menlo, monospace" font-size="9" font-weight="600" fill="#ea580c" letter-spacing="2">SERVICE · 稀有</text>
  </g>
<g id="effectArea"><rect x="16" y="271" width="28" height="28" fill="#1f2733"></rect><rect x="18" y="273" width="24" height="24" fill="#ea580c"></rect><rect x="20" y="273" width="20" height="4" fill="#ffffff80"></rect><text x="30" y="290" text-anchor="middle" font-family="ui-monospace, &#39;SF Mono&#39;, Menlo, monospace" font-size="16" font-weight="800" fill="#fff">3</text><text x="30" y="307" text-anchor="middle" font-family="ui-monospace, &#39;SF Mono&#39;, Menlo, monospace" font-size="7" font-weight="700" fill="#6b7280" letter-spacing="1">AP</text><rect x="56" y="271" width="224" height="28" fill="#ffffff"></rect><rect x="56" y="271" width="224" height="2" fill="#ea580c"></rect><rect x="56" y="297" width="224" height="2" fill="#fed7aa"></rect><rect x="56" y="271" width="2" height="28" fill="#ea580c"></rect><rect x="278" y="271" width="2" height="28" fill="#ea580c"></rect><rect x="62" y="277" width="16" height="16" fill="#fed7aa"></rect><rect x="64" y="279" width="12" height="12" fill="#ea580c"></rect><text x="86" y="290" font-family="&#39;PingFang SC&#39;, system-ui, sans-serif" font-size="13" font-weight="700" fill="#1f2733">免维持 / 整线 +10%</text></g>
<g id="description">
    <text x="150" y="328" text-anchor="middle" font-family="&#39;PingFang SC&#39;, system-ui, sans-serif" font-size="13" font-weight="500" fill="#1f2733">免维持费，整线 +10%</text>
  </g>
<g id="flavorText">
    <line x1="40" y1="346" x2="260" y2="346" stroke="#60a5fa" stroke-width="1" stroke-dasharray="2 3"></line>
    <text x="150" y="368" text-anchor="middle" font-family="&#39;PingFang SC&#39;, system-ui, sans-serif" font-style="italic" font-size="11" fill="#6b7280">&#34;升级版律师，覆盖知识产权、并购&#34;</text>
  </g>
<g id="decorations"><rect x="16" y="394" width="60" height="4" fill="#ea580c"></rect><rect x="76" y="394" width="60" height="4" fill="#60a5fa"></rect><rect x="136" y="394" width="40" height="4" fill="#fed7aa"></rect><rect x="176" y="394" width="60" height="4" fill="#3b82f6"></rect><rect x="236" y="394" width="56" height="4" fill="#9a3412"></rect><text x="282" y="406" text-anchor="end" font-family="ui-monospace, &#39;SF Mono&#39;, Menlo, monospace" font-size="7" fill="#9aa3b3" letter-spacing="1">SRV_10</text><rect x="18" y="402" width="4" height="4" fill="#1d4ed8"></rect><rect x="26" y="402" width="4" height="4" fill="#ea580c"></rect><rect x="34" y="402" width="4" height="4" fill="#3b82f6"></rect></g>
</svg>