<svg width="4226" height="1270" viewBox="0 0 4226 1270" preserveAspectRatio="xMidYMid meet" xmlns="http://www.w3.org/2000/svg" xmlns:xlink="http://www.w3.org/1999/xlink" xml:space="preserve" overflow="visible"><defs><filter id="fx0" x="-10%" y="-10%" width="120%" height="120%" filterUnits="userSpaceOnUse" primitiveUnits="userSpaceOnUse"><feComponentTransfer color-interpolation-filters="sRGB"><feFuncR type="discrete" tableValues="0.000000 0.000000"/><feFuncG type="discrete" tableValues="0.000000 0.000000"/><feFuncB type="discrete" tableValues="0.000000 0.000000"/><feFuncA type="linear" slope="0.901961" intercept="0.000000"/></feComponentTransfer><feGaussianBlur stdDeviation="0.000000 0.000000"/></filter><filter id="fx1" x="-10%" y="-10%" width="120%" height="120%" filterUnits="userSpaceOnUse" primitiveUnits="userSpaceOnUse"><feComponentTransfer color-interpolation-filters="sRGB"><feFuncR type="discrete" tableValues="0.000000 0.000000"/><feFuncG type="discrete" tableValues="0.000000 0.000000"/><feFuncB type="discrete" tableValues="0.000000 0.000000"/><feFuncA type="linear" slope="0.901961" intercept="0.000000"/></feComponentTransfer><feGaussianBlur stdDeviation="0.000000 0.000000"/></filter><filter id="fx2" x="-10%" y="-10%" width="120%" height="120%" filterUnits="userSpaceOnUse" primitiveUnits="userSpaceOnUse"><feComponentTransfer color-interpolation-filters="sRGB"><feFuncR type="discrete" tableValues="0.000000 0.000000"/><feFuncG type="discrete" tableValues="0.000000 0.000000"/><feFuncB type="discrete" tableValues="0.000000 0.000000"/><feFuncA type="linear" slope="0.901961" intercept="0.000000"/></feComponentTransfer><feGaussianBlur stdDeviation="0.000000 0.000000"/></filter><filter id="fx3" x="-10%" y="-10%" width="120%" height="120%" filterUnits="userSpaceOnUse" primitiveUnits="userSpaceOnUse"><feComponentTransfer color-interpolation-filters="sRGB"><feFuncR type="discrete" tableValues="0.000000 0.000000"/><feFuncG type="discrete" tableValues="0.000000 0.000000"/><feFuncB type="discrete" tableValues="0.000000 0.000000"/><feFuncA type="linear" slope="0.901961" intercept="0.000000"/></feComponentTransfer><feGaussianBlur stdDeviation="0.000000 0.000000"/></filter><filter id="fx4" x="-10%" y="-10%" width="120%" height="120%" filterUnits="userSpaceOnUse" primitiveUnits="userSpaceOnUse"><feComponentTransfer color-interpolation-filters="sRGB"><feFuncR type="discrete" tableValues="0.000000 0.000000"/><feFuncG type="discrete" tableValues="0.000000 0.000000"/><feFuncB type="discrete" tableValues="0.000000 0.000000"/><feFuncA type="linear" slope="0.901961" intercept="0.000000"/></feComponentTransfer><feGaussianBlur stdDeviation="0.000000 0.000000"/></filter><filter id="fx5" x="-10%" y="-10%" width="120%" height="120%" filterUnits="userSpaceOnUse" primitiveUnits="userSpaceOnUse"><feComponentTransfer color-interpolation-filters="sRGB"><feFuncR type="discrete" tableValues="0.000000 0.000000"/><feFuncG type="discrete" tableValues="0.000000 0.000000"/><feFuncB type="discrete" tableValues="0.000000 0.000000"/><feFuncA type="linear" slope="0.901961" intercept="0.000000"/></feComponentTransfer><feGaussianBlur stdDeviation="0.000000 0.000000"/></filter><filter id="fx6" x="-10%" y="-10%" width="120%" height="120%" filterUnits="userSpaceOnUse" primitiveUnits="userSpaceOnUse"><feComponentTransfer color-interpolation-filters="sRGB"><feFuncR type="discrete" tableValues="0.000000 0.000000"/><feFuncG type="discrete" tableValues="0.000000 0.000000"/><feFuncB type="discrete" tableValues="0.000000 0.000000"/><feFuncA type="linear" slope="0.901961" intercept="0.000000"/></feComponentTransfer><feGaussianBlur stdDeviation="0.000000 0.000000"/></filter><filter id="fx7" x="-10%" y="-10%" width="120%" height="120%" filterUnits="userSpaceOnUse" primitiveUnits="userSpaceOnUse"><feComponentTransfer color-interpolation-filters="sRGB"><feFuncR type="discrete" tableValues="0.000000 0.000000"/><feFuncG type="discrete" tableValues="0.000000 0.000000"/><feFuncB type="discrete" tableValues="0.000000 0.000000"/><feFuncA type="linear" slope="0.901961" intercept="0.000000"/></feComponentTransfer><feGaussianBlur stdDeviation="0.000000 0.000000"/></filter><filter id="fx8" x="-10%" y="-10%" width="120%" height="120%" filterUnits="userSpaceOnUse" primitiveUnits="userSpaceOnUse"><feComponentTransfer color-interpolation-filters="sRGB"><feFuncR type="discrete" tableValues="0.000000 0.000000"/><feFuncG type="discrete" tableValues="0.000000 0.000000"/><feFuncB type="discrete" tableValues="0.000000 0.000000"/><feFuncA type="linear" slope="0.901961" intercept="0.000000"/></feComponentTransfer><feGaussianBlur stdDeviation="0.000000 0.000000"/></filter><filter id="fx9" x="-10%" y="-10%" width="120%" height="120%" filterUnits="userSpaceOnUse" primitiveUnits="userSpaceOnUse"><feComponentTransfer color-interpolation-filters="sRGB"><feFuncR type="discrete" tableValues="0.000000 0.000000"/><feFuncG type="discrete" tableValues="0.000000 0.000000"/><feFuncB type="discrete" tableValues="0.000000 0.000000"/><feFuncA type="linear" slope="0.901961" intercept="0.000000"/></feComponentTransfer><feGaussianBlur stdDeviation="0.000000 0.000000"/></filter><filter id="fx10" x="-10%" y="-10%" width="120%" height="120%" filterUnits="userSpaceOnUse" primitiveUnits="userSpaceOnUse"><feComponentTransfer color-interpolation-filters="sRGB"><feFuncR type="discrete" tableValues="0.000000 0.000000"/><feFuncG type="discrete" tableValues="0.000000 0.000000"/><feFuncB type="discrete" tableValues="0.000000 0.000000"/><feFuncA type="linear" slope="0.901961" intercept="0.000000"/></feComponentTransfer><feGaussianBlur stdDeviation="0.000000 0.000000"/></filter><filter id="fx11" x="-10%" y="-10%" width="120%" height="120%" filterUnits="userSpaceOnUse" primitiveUnits="userSpaceOnUse"><feComponentTransfer color-interpolation-filters="sRGB"><feFuncR type="discrete" tableValues="0.000000 0.000000"/><feFuncG type="discrete" tableValues="0.000000 0.000000"/><feFuncB type="discrete" tableValues="0.000000 0.000000"/><feFuncA type="linear" slope="0.901961" intercept="0.000000"/></feComponentTransfer><feGaussianBlur stdDeviation="0.000000 0.000000"/></filter><filter id="fx12" x="-10%" y="-10%" width="120%" height="120%" filterUnits="userSpaceOnUse" primitiveUnits="userSpaceOnUse"><feComponentTransfer color-interpolation-filters="sRGB"><feFuncR type="discrete" tableValues="0.000000 0.000000"/><feFuncG type="discrete" tableValues="0.000000 0.000000"/><feFuncB type="discrete" tableValues="0.000000 0.000000"/><feFuncA type="linear" slope="0.901961" intercept="0.000000"/></feComponentTransfer><feGaussianBlur stdDeviation="0.000000 0.000000"/></filter><filter id="fx13" x="-10%" y="-10%" width="120%" height="120%" filterUnits="userSpaceOnUse" primitiveUnits="userSpaceOnUse"><feComponentTransfer color-interpolation-filters="sRGB"><feFuncR type="discrete" tableValues="0.000000 0.000000"/><feFuncG type="discrete" tableValues="0.000000 0.000000"/><feFuncB type="discrete" tableValues="0.000000 0.000000"/><feFuncA type="linear" slope="0.901961" intercept="0.000000"/></feComponentTransfer><feGaussianBlur stdDeviation="0.000000 0.000000"/></filter><filter id="fx14" x="-10%" y="-10%" width="120%" height="120%" filterUnits="userSpaceOnUse" primitiveUnits="userSpaceOnUse"><feComponentTransfer color-interpolation-filters="sRGB"><feFuncR type="discrete" tableValues="0.000000 0.000000"/><feFuncG type="discrete" tableValues="0.000000 0.000000"/><feFuncB type="discrete" tableValues="0.000000 0.000000"/><feFuncA type="linear" slope="0.901961" intercept="0.000000"/></feComponentTransfer><feGaussianBlur stdDeviation="0.000000 0.000000"/></filter><filter id="fx15" x="-10%" y="-10%" width="120%" height="120%" filterUnits="userSpaceOnUse" primitiveUnits="userSpaceOnUse"><feComponentTransfer color-interpolation-filters="sRGB"><feFuncR type="discrete" tableValues="0.000000 0.000000"/><feFuncG type="discrete" tableValues="0.000000 0.000000"/><feFuncB type="discrete" tableValues="0.000000 0.000000"/><feFuncA type="linear" slope="0.901961" intercept="0.000000"/></feComponentTransfer><feGaussianBlur stdDeviation="0.000000 0.000000"/></filter><filter id="fx16" x="-10%" y="-10%" width="120%" height="120%" filterUnits="userSpaceOnUse" primitiveUnits="userSpaceOnUse"><feComponentTransfer color-interpolation-filters="sRGB"><feFuncR type="discrete" tableValues="0.000000 0.000000"/><feFuncG type="discrete" tableValues="0.000000 0.000000"/><feFuncB type="discrete" tableValues="0.000000 0.000000"/><feFuncA type="linear" slope="0.901961" intercept="0.000000"/></feComponentTransfer><feGaussianBlur stdDeviation="0.000000 0.000000"/></filter><linearGradient x1="2836.44" y1="409.493" x2="2836.44" y2="1124.49" gradientUnits="userSpaceOnUse" spreadMethod="reflect" id="fill17"><stop offset="0" stop-color="#F15822" stop-opacity="1"/><stop offset="0.24" stop-color="#F15822" stop-opacity="1"/><stop offset="0.5296" stop-color="#FFC017" stop-opacity="1"/><stop offset="0.78" stop-color="#FFFDDF" stop-opacity="1"/><stop offset="1" stop-color="#FFFDDF" stop-opacity="1"/></linearGradient><linearGradient x1="343.211" y1="409.374" x2="343.211" y2="1509.37" gradientUnits="userSpaceOnUse" spreadMethod="reflect" id="fill18"><stop offset="0" stop-color="#F15822" stop-opacity="1"/><stop offset="0.24" stop-color="#F15822" stop-opacity="1"/><stop offset="0.5296" stop-color="#FFC017" stop-opacity="1"/><stop offset="0.78" stop-color="#FFFDDF" stop-opacity="1"/><stop offset="1" stop-color="#FFFDDF" stop-opacity="1"/></linearGradient><linearGradient x1="767.776" y1="423.211" x2="767.776" y2="1440.71" gradientUnits="userSpaceOnUse" spreadMethod="reflect" id="fill19"><stop offset="0" stop-color="#F15822" stop-opacity="1"/><stop offset="0.24" stop-color="#F15822" stop-opacity="1"/><stop offset="0.5296" stop-color="#FFC017" stop-opacity="1"/><stop offset="0.78" stop-color="#FFFDDF" stop-opacity="1"/><stop offset="1" stop-color="#FFFDDF" stop-opacity="1"/></linearGradient><linearGradient x1="1663.83" y1="486.906" x2="1663.83" y2="1256.91" gradientUnits="userSpaceOnUse" spreadMethod="reflect" id="fill20"><stop offset="0" stop-color="#F15822" stop-opacity="1"/><stop offset="0.24" stop-color="#F15822" stop-opacity="1"/><stop offset="0.5296" stop-color="#FFC017" stop-opacity="1"/><stop offset="0.78" stop-color="#FFFDDF" stop-opacity="1"/><stop offset="1" stop-color="#FFFDDF" stop-opacity="1"/></linearGradient><linearGradient x1="2068.62" y1="459.158" x2="2068.62" y2="1174.16" gradientUnits="userSpaceOnUse" spreadMethod="reflect" id="fill21"><stop offset="0" stop-color="#F15822" stop-opacity="1"/><stop offset="0.24" stop-color="#F15822" stop-opacity="1"/><stop offset="0.5296" stop-color="#FFC017" stop-opacity="1"/><stop offset="0.78" stop-color="#FFFDDF" stop-opacity="1"/><stop offset="1" stop-color="#FFFDDF" stop-opacity="1"/></linearGradient><linearGradient x1="2632.1" y1="411.573" x2="2632.1" y2="1154.07" gradientUnits="userSpaceOnUse" spreadMethod="reflect" id="fill22"><stop offset="0" stop-color="#F15822" stop-opacity="1"/><stop offset="0.24" stop-color="#F15822" stop-opacity="1"/><stop offset="0.5296" stop-color="#FFC017" stop-opacity="1"/><stop offset="0.78" stop-color="#FFFDDF" stop-opacity="1"/><stop offset="1" stop-color="#FFFDDF" stop-opacity="1"/></linearGradient><linearGradient x1="3045.27" y1="417.508" x2="3045.27" y2="1105.01" gradientUnits="userSpaceOnUse" spreadMethod="reflect" id="fill23"><stop offset="0" stop-color="#F15822" stop-opacity="1"/><stop offset="0.24" stop-color="#F15822" stop-opacity="1"/><stop offset="0.5296" stop-color="#FFC017" stop-opacity="1"/><stop offset="0.78" stop-color="#FFFDDF" stop-opacity="1"/><stop offset="1" stop-color="#FFFDDF" stop-opacity="1"/></linearGradient><linearGradient x1="3253.13" y1="431.828" x2="3253.13" y2="1064.33" gradientUnits="userSpaceOnUse" spreadMethod="reflect" id="fill24"><stop offset="0" stop-color="#F15822" stop-opacity="1"/><stop offset="0.24" stop-color="#F15822" stop-opacity="1"/><stop offset="0.5296" stop-color="#FFC017" stop-opacity="1"/><stop offset="0.78" stop-color="#FFFDDF" stop-opacity="1"/><stop offset="1" stop-color="#FFFDDF" stop-opacity="1"/></linearGradient><linearGradient x1="3460.45" y1="435.804" x2="3460.45" y2="1013.3" gradientUnits="userSpaceOnUse" spreadMethod="reflect" id="fill25"><stop offset="0" stop-color="#F15822" stop-opacity="1"/><stop offset="0.24" stop-color="#F15822" stop-opacity="1"/><stop offset="0.5296" stop-color="#FFC017" stop-opacity="1"/><stop offset="0.78" stop-color="#FFFDDF" stop-opacity="1"/><stop offset="1" stop-color="#FFFDDF" stop-opacity="1"/></linearGradient><linearGradient x1="3636.91" y1="435.804" x2="3636.91" y2="985.803" gradientUnits="userSpaceOnUse" spreadMethod="reflect" id="fill26"><stop offset="0" stop-color="#F15822" stop-opacity="1"/><stop offset="0.24" stop-color="#F15822" stop-opacity="1"/><stop offset="0.5296" stop-color="#FFC017" stop-opacity="1"/><stop offset="0.78" stop-color="#FFFDDF" stop-opacity="1"/><stop offset="1" stop-color="#FFFDDF" stop-opacity="1"/></linearGradient><linearGradient x1="3850.44" y1="435.804" x2="3850.44" y2="958.303" gradientUnits="userSpaceOnUse" spreadMethod="reflect" id="fill27"><stop offset="0" stop-color="#F15822" stop-opacity="1"/><stop offset="0.24" stop-color="#F15822" stop-opacity="1"/><stop offset="0.5296" stop-color="#FFC017" stop-opacity="1"/><stop offset="0.78" stop-color="#FFFDDF" stop-opacity="1"/><stop offset="1" stop-color="#FFFDDF" stop-opacity="1"/></linearGradient><linearGradient x1="4035.54" y1="431.828" x2="4035.54" y2="926.828" gradientUnits="userSpaceOnUse" spreadMethod="reflect" id="fill28"><stop offset="0" stop-color="#F15822" stop-opacity="1"/><stop offset="0.24" stop-color="#F15822" stop-opacity="1"/><stop offset="0.5296" stop-color="#FFC017" stop-opacity="1"/><stop offset="0.78" stop-color="#FFFDDF" stop-opacity="1"/><stop offset="1" stop-color="#FFFDDF" stop-opacity="1"/></linearGradient><linearGradient x1="4201.95" y1="436.767" x2="4201.95" y2="904.267" gradientUnits="userSpaceOnUse" spreadMethod="reflect" id="fill29"><stop offset="0" stop-color="#F15822" stop-opacity="1"/><stop offset="0.24" stop-color="#F15822" stop-opacity="1"/><stop offset="0.5296" stop-color="#FFC017" stop-opacity="1"/><stop offset="0.78" stop-color="#FFFDDF" stop-opacity="1"/><stop offset="1" stop-color="#FFFDDF" stop-opacity="1"/></linearGradient><linearGradient x1="1343.42" y1="484.886" x2="1343.42" y2="1337.39" gradientUnits="userSpaceOnUse" spreadMethod="reflect" id="fill30"><stop offset="0" stop-color="#F15822" stop-opacity="1"/><stop offset="0.24" stop-color="#F15822" stop-opacity="1"/><stop offset="0.5296" stop-color="#FFC017" stop-opacity="1"/><stop offset="0.78" stop-color="#FFFDDF" stop-opacity="1"/><stop offset="1" stop-color="#FFFDDF" stop-opacity="1"/></linearGradient><linearGradient x1="1083.49" y1="471.002" x2="1083.49" y2="1378.5" gradientUnits="userSpaceOnUse" spreadMethod="reflect" id="fill31"><stop offset="0" stop-color="#F15822" stop-opacity="1"/><stop offset="0.24" stop-color="#F15822" stop-opacity="1"/><stop offset="0.5296" stop-color="#FFC017" stop-opacity="1"/><stop offset="0.78" stop-color="#FFFDDF" stop-opacity="1"/><stop offset="1" stop-color="#FFFDDF" stop-opacity="1"/></linearGradient><linearGradient x1="2349.17" y1="371.009" x2="2349.17" y2="1333.51" gradientUnits="userSpaceOnUse" spreadMethod="reflect" id="fill32"><stop offset="0" stop-color="#F15822" stop-opacity="1"/><stop offset="0.24" stop-color="#F15822" stop-opacity="1"/><stop offset="0.5296" stop-color="#FFC017" stop-opacity="1"/><stop offset="0.78" stop-color="#FFFDDF" stop-opacity="1"/><stop offset="1" stop-color="#FFFDDF" stop-opacity="1"/></linearGradient></defs><g transform="translate(-82 -270)"><g><g filter="url(#fx0)" transform="translate(2802 582)"><g><g><path d="M99.8883 0.771753C100.907 4.03114 101.416 11.3647 101.416 22.7725 101.416 60.2554 96.0178 131.656 85.2211 236.975 105.388 200.103 128 161.907 153.057 122.387 185.651 71.2557 211.013 36.4212 229.143 17.8835L239.227 16.9668C257.561 14.726 278.746 12.8926 302.784 11.4666 287.302 30.0043 270.394 55.7737 252.06 88.7749 242.282 106.905 227.615 133.999 208.059 170.056L154.279 264.781C130.241 305.727 110.176 335.265 94.0825 353.395L1.49589 376.007C3.94043 370.303 6.38496 328.339 8.82948 250.114 10.4592 181.667 11.274 117.906 11.274 58.8294 11.274 38.0508 10.9685 25.4208 10.3573 20.9391Z" fill="#FF0000" fill-rule="evenodd" fill-opacity="1"/></g></g></g><path d="M2878.22 560.573C2879.19 563.677 2879.68 570.661 2879.68 581.526 2879.68 617.224 2874.54 685.224 2864.25 785.528 2883.46 750.412 2905 714.035 2928.86 676.397 2959.9 627.7 2984.05 594.525 3001.32 576.87L3010.92 575.997C3028.39 573.863 3048.56 572.116 3071.46 570.758 3056.71 588.413 3040.61 612.956 3023.15 644.385 3013.83 661.652 2999.87 687.456 2981.24 721.795L2930.02 812.01C2907.13 851.006 2888.02 879.138 2872.69 896.405L2784.51 917.94C2786.84 912.508 2789.17 872.542 2791.5 798.042 2793.05 732.854 2793.83 672.129 2793.83 615.866 2793.83 596.077 2793.54 584.048 2792.95 579.78Z" fill="url(#fill17)" fill-rule="evenodd"/><text fill="#000000" fill-opacity="0" font-family="Arial,Arial_MSFontService,sans-serif" font-size="357.367" direction="ltr" writing-mode="lr-tb" x="2784.51" y="873.269">v</text><g filter="url(#fx1)" transform="translate(138 670)"><g><g><path d="M652.339 1.14872 609.086 137.96 554.549 137.96C453.312 137.96 374.015 140.311 316.658 145.012L346.276 161.937C341.575 172.28 329.978 199.392 311.486 243.272 306.471 254.555 300.829 267.876 294.561 283.234L497.192 275.711 454.409 398.418 254.599 405.47C247.39 428.351 241.592 446.373 237.204 459.537 208.682 541.028 188.779 620.952 177.496 699.309 125.78 704.637 67.0123 712.943 1.19251 724.227L1.19251 722.816C1.19251 718.428 9.49835 686.772 26.11 627.847 45.5425 559.834 62.9378 504.2 78.2957 460.947 103.997 389.172 133.302 316.614 166.212 243.272 178.749 215.69 192.854 187.011 208.525 157.236 175.302 160.997 144.272 164.601 115.437 168.049L156.809 27.0065C222.002 21.9917 299.889 16.8202 390.47 11.4919 444.379 8.35766 531.669 4.90993 652.339 1.14872Z" fill="#FF0000" fill-rule="evenodd" fill-opacity="1"/></g></g></g><path d="M739.626 639.916 698.433 770.213 646.494 770.213C550.077 770.213 474.556 772.451 419.93 776.929L448.138 793.048C443.661 802.899 432.616 828.719 415.005 870.51 410.229 881.256 404.856 893.942 398.886 908.569L591.868 901.405 551.122 1018.27 360.827 1024.98C353.961 1046.78 348.439 1063.94 344.26 1076.48 317.096 1154.09 298.141 1230.21 287.395 1304.83 238.142 1309.91 182.173 1317.82 119.487 1328.56L119.487 1327.22C119.487 1323.04 127.397 1292.89 143.218 1236.77 161.725 1172 178.292 1119.01 192.919 1077.82 217.396 1009.46 245.306 940.359 276.649 870.51 288.589 844.241 302.021 816.928 316.947 788.571 285.305 792.153 255.754 795.585 228.291 798.869L267.694 664.543C329.782 659.767 403.96 654.841 490.227 649.767 541.57 646.782 624.703 643.498 739.626 639.916Z" fill="url(#fill18)" fill-rule="evenodd"/><text fill="#000000" fill-opacity="0" font-family="Arial,Arial_MSFontService,sans-serif" font-size="688.646" direction="ltr" writing-mode="lr-tb" x="119.487" y="1242.48">F</text><g filter="url(#fx2)" transform="translate(592 665)"><g><g><path d="M290.161 100.929C275.668 101.509 256.249 105.277 231.902 112.233L256.684 124.841C248.278 139.623 239.583 157.883 230.598 179.621 230.018 181.071 225.381 193.534 216.685 217.011L246.684 216.142C277.697 215.272 303.928 210.78 325.377 202.664 356.1 190.491 371.462 171.796 371.462 146.579 371.462 128.029 359.143 114.262 334.507 105.277 327.261 102.378 315.522 100.929 299.291 100.929ZM254.51 1.36756C264.365 1.36764 275.524 1.94729 287.987 3.10663 322.478 5.71523 342.188 7.45429 347.115 8.32383 365.375 11.2223 385.519 17.4539 407.547 27.0187 456.241 47.3078 480.588 82.0891 480.588 131.362 480.588 138.319 479.574 147.159 477.545 157.883 463.052 235.271 413.489 283.82 328.855 303.53 383.056 362.658 428.126 422.076 464.067 481.784L344.072 525.26C309.58 455.118 263.495 386.425 205.816 319.181L187.991 304.399 176.252 340.485C168.136 366.571 153.644 420.916 132.776 503.522L128.863 503.957C91.7627 511.203 49.0107 521.347 0.606824 534.39 16.8381 471.784 36.2576 407.149 58.8654 340.485 72.7779 298.457 94.6611 244.836 124.515 179.621 130.602 166.579 139.297 148.898 150.601 126.58 141.036 129.768 132.631 132.232 125.385 133.971L99.7334 14.8453C159.441 5.86019 211.033 1.36764 254.51 1.36756Z" fill="#FF0000" fill-rule="evenodd" fill-opacity="1"/></g></g></g><path d="M849.328 731.826C835.526 732.378 817.031 735.967 793.844 742.592L817.445 754.6C809.44 768.678 801.159 786.068 792.601 806.771 792.049 808.152 787.633 820.021 779.351 842.381L807.922 841.553C837.458 840.725 862.44 836.446 882.867 828.717 912.127 817.123 926.758 799.318 926.758 775.303 926.758 757.636 915.026 744.524 891.562 735.967 884.661 733.206 873.482 731.826 858.023 731.826ZM815.375 637.006C824.76 637.006 835.388 637.558 847.258 638.662 880.107 641.146 898.877 642.803 903.57 643.631 920.961 646.391 940.146 652.326 961.125 661.436 1007.5 680.758 1030.69 713.883 1030.69 760.811 1030.69 767.436 1029.72 775.855 1027.79 786.068 1013.99 859.771 966.784 906.008 886.179 924.779 937.799 981.092 980.724 1037.68 1014.95 1094.54L900.672 1135.95C867.823 1069.15 823.932 1003.73 769 939.686L752.023 925.607 740.844 959.975C733.114 984.818 719.312 1036.58 699.437 1115.25L695.711 1115.66C660.377 1122.56 619.661 1132.22 573.562 1144.65 589.021 1085.02 607.515 1023.46 629.047 959.975 642.297 919.949 663.138 868.881 691.57 806.771 697.367 794.35 705.648 777.511 716.414 756.256 707.304 759.292 699.299 761.639 692.398 763.295L667.969 649.842C724.833 641.285 773.969 637.006 815.375 637.006Z" fill="url(#fill19)" fill-rule="evenodd"/><text fill="#000000" fill-opacity="0" font-family="Arial,Arial_MSFontService,sans-serif" font-size="507.641" direction="ltr" writing-mode="lr-tb" x="573.562" y="1081.19">r</text><g filter="url(#fx3)" transform="translate(1542 671)"><g><g><path d="M244.557 1.20711C226.125 34.7804 201.438 85.5793 170.498 153.604 169.84 155.359 166.878 162.6 161.611 175.328 210.764 154.701 257.723 120.25 302.488 71.9744 322.456 50.6894 338.475 29.4044 350.543 8.11926L361.405 7.13181C381.154 4.71808 403.976 2.74317 429.869 1.20711 404.634 58.9181 361.405 112.899 300.183 163.149 269.243 189.042 236.328 208.243 201.438 220.75 224.04 232.161 244.008 250.484 261.344 275.719 279.557 302.27 288.663 327.615 288.663 351.752 288.663 358.335 287.566 365.247 285.372 372.489L185.639 396.846C188.053 385.435 189.26 373.805 189.26 361.956 189.26 340.013 185.2 319.276 177.081 299.746 167.207 275.609 153.382 260.139 135.608 253.336L128.696 275.719C123.43 293.932 113.994 329.26 100.389 381.705L0.656646 406.391C12.0672 364.26 25.1235 320.702 39.8255 275.719 51.2361 241.706 67.8033 201.001 89.5272 153.604 106.204 117.617 131.549 69.1218 165.561 8.11926L175.765 7.13181C195.733 4.71808 218.664 2.74317 244.557 1.20711Z" fill="#FF0000" fill-rule="evenodd" fill-opacity="1"/></g></g></g><path d="M1759.5 648.695C1741.95 680.67 1718.44 729.05 1688.97 793.835 1688.35 795.507 1685.52 802.403 1680.51 814.524 1727.32 794.88 1772.04 762.069 1814.68 716.093 1833.69 695.821 1848.95 675.55 1860.44 655.278L1870.79 654.338C1889.6 652.039 1911.33 650.158 1935.99 648.695 1911.96 703.658 1870.79 755.068 1812.48 802.926 1783.02 827.586 1751.67 845.872 1718.44 857.784 1739.96 868.651 1758.98 886.102 1775.49 910.135 1792.84 935.422 1801.51 959.56 1801.51 982.548 1801.51 988.817 1800.47 995.4 1798.38 1002.3L1703.39 1025.49C1705.69 1014.63 1706.84 1003.55 1706.84 992.266 1706.84 971.367 1702.97 951.618 1695.24 933.019 1685.84 910.03 1672.67 895.297 1655.74 888.818L1649.16 910.135C1644.15 927.481 1635.16 961.127 1622.2 1011.07L1527.22 1034.59C1538.09 994.46 1550.52 952.977 1564.52 910.135 1575.39 877.742 1591.17 838.976 1611.86 793.835 1627.74 759.562 1651.88 713.376 1684.27 655.278L1693.99 654.338C1713.01 652.039 1734.84 650.158 1759.5 648.695Z" fill="url(#fill20)" fill-rule="evenodd"/><text fill="#000000" fill-opacity="0" font-family="Arial,Arial_MSFontService,sans-serif" font-size="385.89" direction="ltr" writing-mode="lr-tb" x="1527.22" y="986.349">k</text><g filter="url(#fx4)" transform="translate(1622 275)"><g><g><path d="M148.492-240.853C116.14-220.427 90.2731-210.215 70.8916-210.215 67.3135-210.215 64.0335-210.886 61.0518-212.228 70.5934-244.282 78.4951-270.67 84.7568-291.394 115.767-309.284 145.659-327.697 174.434-346.631 165.041-307.271 156.394-272.012 148.492-240.853Z" fill="#F15822" fill-rule="nonzero" fill-opacity="1" transform="matrix(1.05 0 0 1.05 289.437 632)"/></g></g></g><text fill="#F15822" fill-opacity="1" font-family="Adventure,Adventure_MSFontService,sans-serif" font-style="normal" font-variant="normal" font-weight="400" font-stretch="normal" font-size="458" text-anchor="start" direction="ltr" writing-mode="lr-tb" unicode-bidi="normal" text-decoration="none" transform="matrix(1 0 0 1 1899.19 872)">‘</text><g filter="url(#fx5)" transform="translate(2005 623)"><g><g><path d="M190.906 0.880806 223.296 77.2724C209.851 77.6798 198.341 78.9021 188.767 80.9392 164.729 86.6431 147.617 96.4213 137.432 110.274 133.969 115.163 132.237 120.255 132.237 125.552 132.237 134.515 136.922 145.719 146.293 159.164 158.719 177.091 165.849 188.091 167.683 192.165 179.091 218.852 184.794 239.63 184.794 254.501L184.794 260.612C181.535 297.484 160.349 328.855 121.237 354.727 100.051 368.986 65.8273 382.024 18.5664 393.839L1.45464 302.475C19.3812 300.234 35.4744 296.669 49.7341 291.78 83.5501 280.168 100.458 264.686 100.458 245.334L100.458 242.278C100.458 232.5 97.3006 221.5 90.9856 209.277 87.5225 204.184 81.513 194.814 72.9572 181.165 57.6789 156.923 50.0397 135.941 50.0397 118.218 50.0397 80.3281 64.1976 53.0308 92.5134 36.3265 114.31 23.6964 147.108 11.8812 190.906 0.880806Z" fill="#FF0000" fill-rule="evenodd" fill-opacity="1"/></g></g></g><path d="M2171.61 602.089 2202.46 674.843C2189.66 675.231 2178.7 676.395 2169.58 678.335 2146.68 683.768 2130.39 693.08 2120.69 706.273 2117.39 710.929 2115.74 715.779 2115.74 720.824 2115.74 729.36 2120.2 740.031 2129.13 752.835 2140.96 769.908 2147.75 780.385 2149.5 784.265 2160.36 809.68 2165.79 829.469 2165.79 843.632L2165.79 849.453C2162.69 884.568 2142.51 914.446 2105.26 939.085 2085.09 952.666 2052.49 965.083 2007.48 976.335L1991.18 889.322C2008.26 887.188 2023.58 883.792 2037.16 879.136 2069.37 868.078 2085.47 853.333 2085.47 834.902L2085.47 831.992C2085.47 822.679 2082.47 812.203 2076.45 800.562 2073.15 795.712 2067.43 786.787 2059.28 773.789 2044.73 750.701 2037.46 730.718 2037.46 713.839 2037.46 677.753 2050.94 651.756 2077.91 635.847 2098.67 623.818 2129.9 612.566 2171.61 602.089Z" fill="url(#fill21)" fill-rule="evenodd"/><text fill="#000000" fill-opacity="0" font-family="Arial,Arial_MSFontService,sans-serif" font-size="374.246" direction="ltr" writing-mode="lr-tb" x="1991.18" y="929.555">s</text><g filter="url(#fx6)" transform="translate(2512 589)"><g><g><path d="M215.239 68.816C191.966 69.8739 173.56 72.4127 160.019 76.4326L188.264 90.7137C185.725 95.1567 179.378 108.486 169.222 130.701 167.318 135.99 163.933 145.088 159.067 157.994L109.242 293.506C151.556 283.562 190.485 260.395 226.029 224.004 254.592 194.173 268.873 163.283 268.873 131.336 268.873 98.965 262.631 80.664 250.149 76.4326 236.396 71.3548 225.077 68.816 216.191 68.816ZM186.677 0.583936C193.87 0.583959 202.016 1.00713 211.114 1.85336 236.291 3.75751 250.678 5.02695 254.274 5.66167 267.603 7.7774 282.308 12.3262 298.387 19.3081 333.931 34.1181 351.703 59.5068 351.703 95.4741 351.703 102.244 350.963 108.697 349.482 114.833 335.095 238.391 253.851 323.761 105.751 370.941L86.7091 376.971C56.6659 380.991 28.2094 383.635 1.33975 384.905 5.57119 373.057 16.7845 340.369 34.9797 286.841 43.8658 260.183 57.618 220.513 76.2363 167.832 84.2761 146.463 97.2878 118.747 115.271 84.6839 109.559 88.2806 101.942 92.5121 92.4216 97.3782L73.6975 10.422C117.281 3.86335 154.941 0.583959 186.677 0.583936Z" fill="#FF0000" fill-rule="evenodd" fill-opacity="1"/></g></g></g><path d="M2701.75 631.77C2679.58 632.778 2662.05 635.196 2649.16 639.024L2676.05 652.625C2673.64 656.857 2667.59 669.551 2657.92 690.708 2656.11 695.746 2652.88 704.41 2648.25 716.701L2600.8 845.761C2641.1 836.29 2678.17 814.226 2712.02 779.569 2739.22 751.158 2752.83 721.739 2752.83 691.313 2752.83 660.484 2746.88 643.054 2734.99 639.024 2721.9 634.188 2711.12 631.77 2702.65 631.77ZM2674.54 566.787C2681.39 566.787 2689.15 567.19 2697.82 567.996 2721.79 569.81 2735.5 571.019 2738.92 571.623 2751.62 573.638 2765.62 577.971 2780.93 584.62 2814.79 598.725 2831.71 622.904 2831.71 657.159 2831.71 663.607 2831.01 669.753 2829.6 675.596 2815.89 793.271 2738.52 874.575 2597.47 919.509L2579.34 925.251C2550.72 929.08 2523.62 931.598 2498.03 932.807 2502.06 921.524 2512.74 890.392 2530.07 839.413 2538.53 814.025 2551.63 776.244 2569.36 726.071 2577.02 705.72 2589.41 679.324 2606.54 646.883 2601.1 650.308 2593.84 654.338 2584.78 658.972L2566.94 576.157C2608.45 569.911 2644.32 566.787 2674.54 566.787Z" fill="url(#fill22)" fill-rule="evenodd"/><text fill="#000000" fill-opacity="0" font-family="Arial,Arial_MSFontService,sans-serif" font-size="366.02" direction="ltr" writing-mode="lr-tb" x="2498.03" y="887.055">d</text><g filter="url(#fx7)" transform="translate(2925 581)"><g><g><path d="M225.795 77.5352C217.765 88.8945 200.922 116.118 175.266 159.204L154.114 195.045 201.999 194.164 212.869 202.683C221.878 182.902 226.382 146.572 226.382 93.6928 226.382 85.663 226.186 80.2771 225.795 77.5352ZM283.374 0.56628 285.431 30.5313C286.802 53.2498 287.487 75.0871 287.487 96.0429 287.487 137.367 284.452 175.754 278.38 211.203 276.226 217.274 271.526 242.832 264.279 287.878 261.341 306.483 258.306 321.662 255.172 333.413L166.159 355.152C172.426 334.979 184.275 298.943 201.705 247.043L130.318 250.568C115.629 273.874 102.214 304.231 90.0709 341.638L1.0573 363.671C3.60335 353.879 15.1585 328.125 35.7227 286.409L57.1682 242.93C77.3407 201.998 109.068 151.468 152.351 91.3426 176.049 58.244 199.453 28.8665 222.563 3.21024 236.273 2.81857 256.543 1.93725 283.374 0.56628Z" fill="#FF0000" fill-rule="evenodd" fill-opacity="1"/></g></g></g><path d="M3125.81 633.471C3118.17 644.289 3102.12 670.216 3077.69 711.251L3057.54 745.385 3103.15 744.545 3113.5 752.659C3122.08 733.82 3126.37 699.22 3126.37 648.859 3126.37 641.211 3126.19 636.082 3125.81 633.471ZM3180.65 560.167 3182.61 588.705C3183.91 610.342 3184.57 631.139 3184.57 651.097 3184.57 690.454 3181.68 727.012 3175.89 760.773 3173.84 766.555 3169.37 790.896 3162.46 833.797 3159.67 851.517 3156.78 865.972 3153.79 877.163L3069.02 897.868C3074.98 878.656 3086.27 844.335 3102.87 794.907L3034.88 798.264C3020.89 820.46 3008.12 849.372 2996.55 884.997L2911.78 905.981C2914.2 896.655 2925.21 872.127 2944.79 832.398L2965.22 790.99C2984.43 752.006 3014.64 703.883 3055.87 646.621 3078.44 615.098 3100.73 587.12 3122.73 562.685 3135.79 562.312 3155.1 561.473 3180.65 560.167Z" fill="url(#fill23)" fill-rule="evenodd"/><text fill="#000000" fill-opacity="0" font-family="Arial,Arial_MSFontService,sans-serif" font-size="345.814" direction="ltr" writing-mode="lr-tb" x="2911.78" y="862.755">a</text><g filter="url(#fx8)" transform="translate(3153 573)"><g><g><path d="M174.205 1.29684C189.876 63.8009 201.134 122.342 207.979 176.921 208.88 176.921 212.122 170.256 217.706 156.927L226.352 135.852C235.719 113.876 256.343 74.0681 288.226 16.4275L297.142 15.6169C313.353 13.6356 332.087 12.0144 353.342 10.7535 334.068 45.8783 313.714 87.5776 292.279 135.852 284.713 153.324 273.455 186.738 258.505 236.092 254.362 249.242 246.526 275.72 234.998 315.528L152.86 335.522C153.581 332.46 153.941 327.777 153.941 321.472 153.941 290.491 150.068 249.422 142.323 198.266 139.441 178.091 136.919 168.004 134.758 168.004L106.388 236.092C93.4184 266.894 85.5829 295.894 82.881 323.094L1.01328 343.358C10.56 308.053 21.2776 272.298 33.1659 236.092 42.3524 208.533 55.952 175.119 73.9647 135.852 81.8903 118.559 92.878 96.9443 106.928 71.006 107.829 68.3041 108.279 66.1425 108.279 64.5214 108.279 59.8381 106.388 52.3628 102.605 42.0956 97.9216 28.9463 95.3097 21.2909 94.7694 19.1294Z" fill="#FF0000" fill-rule="evenodd" fill-opacity="1"/></g></g></g><path d="M3305.5 554.693C3320.42 614.22 3331.14 669.974 3337.66 721.953 3338.52 721.953 3341.61 715.606 3346.93 702.911L3355.16 682.84C3364.08 661.911 3383.72 623.998 3414.09 569.103L3422.58 568.331C3438.02 566.444 3455.86 564.9 3476.1 563.699 3457.75 597.151 3438.36 636.865 3417.95 682.84 3410.74 699.48 3400.02 731.303 3385.78 778.307 3381.84 790.83 3374.37 816.048 3363.4 853.961L3285.17 873.003C3285.85 870.086 3286.2 865.626 3286.2 859.622 3286.2 830.115 3282.51 791.002 3275.13 742.282 3272.39 723.068 3269.99 713.462 3267.93 713.462L3240.91 778.307C3228.56 807.642 3221.09 835.262 3218.52 861.166L3140.55 880.465C3149.64 846.841 3159.85 812.789 3171.17 778.307 3179.92 752.06 3192.87 720.238 3210.03 682.84 3217.58 666.371 3228.04 645.785 3241.42 621.082 3242.28 618.509 3242.71 616.45 3242.71 614.906 3242.71 610.446 3240.91 603.327 3237.31 593.548 3232.85 581.025 3230.36 573.734 3229.84 571.676Z" fill="url(#fill24)" fill-rule="evenodd"/><text fill="#000000" fill-opacity="0" font-family="Arial,Arial_MSFontService,sans-serif" font-size="325.772" direction="ltr" writing-mode="lr-tb" x="3140.55" y="839.743">n</text><g filter="url(#fx9)" transform="translate(3433 575)"><g><g><path d="M231.619 1.26233 213.371 58.7216 189.696 58.7216C166.515 58.7216 146.458 58.9682 129.524 59.4615L146.787 68.8325C134.128 92.9999 118.674 134.841 100.425 194.355 93.8486 216.879 85.6284 247.54 75.7642 286.339L73.7913 287.079C56.0356 290.367 31.786 296.286 1.04242 304.835 10.7423 268.008 21.8396 231.182 34.3343 194.355 41.8969 171.339 54.3916 140.842 71.8185 102.864 75.7642 93.4931 82.3403 79.7654 91.547 61.6809 66.5575 63.9826 38.1156 67.1885 6.22116 71.2985L23.7302 12.113C52.3366 9.97577 84.9708 7.83851 121.633 5.70125 144.156 4.38603 180.819 2.90639 231.619 1.26233Z" fill="#FF0000" fill-rule="evenodd" fill-opacity="1"/></g></g></g><path d="M3638 557.524 3620.62 612.247 3598.08 612.247C3576 612.247 3556.9 612.482 3540.77 612.952L3557.21 621.877C3545.16 644.893 3530.44 684.742 3513.06 741.422 3506.79 762.873 3498.97 792.074 3489.57 829.026L3487.69 829.731C3470.78 832.862 3447.69 838.499 3418.41 846.641 3427.65 811.568 3438.21 776.495 3450.11 741.422 3457.32 719.502 3469.22 690.457 3485.81 654.288 3489.57 645.363 3495.83 632.289 3504.6 615.066 3480.8 617.258 3453.72 620.311 3423.34 624.225L3440.02 567.858C3467.26 565.823 3498.34 563.787 3533.26 561.752 3554.71 560.499 3589.62 559.09 3638 557.524Z" fill="url(#fill25)" fill-rule="evenodd"/><text fill="#000000" fill-opacity="0" font-family="Arial,Arial_MSFontService,sans-serif" font-size="289.117" direction="ltr" writing-mode="lr-tb" x="3418.41" y="810.501">t</text><g filter="url(#fx10)" transform="translate(3575 569)"><g><g><path d="M124.855 1.01291C111.236 33.8869 102.391 55.3333 98.3211 65.3521 83.1364 104.018 72.4915 135.718 66.3863 160.452 64.3512 169.688 63.3337 178.767 63.3337 187.69 63.3337 215.242 73.1959 229.018 92.9203 229.018 115.463 229.018 135.265 206.162 152.328 160.452L211.502 1.01291 269.031 1.01291C264.022 12.7536 255.608 37.7222 243.789 75.9187 231.97 114.115 222.851 142.293 216.433 160.452 198.743 210.546 178.471 245.298 155.616 264.71 136.361 280.833 111.314 288.895 80.4752 288.895 64.9774 288.895 49.558 283.416 34.2167 272.458 12.3007 256.491 1.34272 233.01 1.34272 202.014 1.34272 189.178 3.22124 175.324 6.97827 160.452 18.8755 113.802 37.6607 63.0822 63.3337 8.29216Z" fill="#FF0000" fill-rule="evenodd" fill-opacity="1"/></g></g></g><path d="M3679.79 551.957C3666.82 583.266 3658.4 603.691 3654.52 613.233 3640.06 650.058 3629.92 680.248 3624.11 703.804 3622.17 712.6 3621.2 721.247 3621.2 729.745 3621.2 755.985 3630.59 769.105 3649.38 769.105 3670.85 769.105 3689.71 747.338 3705.96 703.804L3762.31 551.957 3817.1 551.957C3812.33 563.139 3804.32 586.919 3793.06 623.296 3781.81 659.674 3773.12 686.51 3767.01 703.804 3750.16 751.512 3730.85 784.61 3709.09 803.097 3690.75 818.453 3666.9 826.131 3637.52 826.131 3622.76 826.131 3608.08 820.913 3593.47 810.477 3572.6 795.27 3562.16 772.907 3562.16 743.387 3562.16 731.162 3563.95 717.967 3567.53 703.804 3578.86 659.376 3596.75 611.071 3621.2 558.89Z" fill="url(#fill26)" fill-rule="evenodd"/><text fill="#000000" fill-opacity="0" font-family="Arial,Arial_MSFontService,sans-serif" font-size="274.174" direction="ltr" writing-mode="lr-tb" x="3562.16" y="791.859">u</text><g filter="url(#fx11)" transform="translate(3762 562)"><g><g><path d="M149.395 51.7285C141.961 52.0259 132 53.9587 119.51 57.5271L132.223 63.9948C127.911 71.5775 123.45 80.9445 118.841 92.0956 118.544 92.839 116.165 99.2323 111.705 111.276L127.093 110.829C143.002 110.383 156.458 108.079 167.46 103.916 183.22 97.6711 191.101 88.0812 191.101 75.1459 191.101 65.6303 184.782 58.5679 172.144 53.9587 168.427 52.4719 162.405 51.7285 154.079 51.7285ZM131.107 0.656379C136.163 0.656415 141.887 0.953786 148.28 1.54848 165.973 2.88661 176.084 3.7787 178.611 4.22475 187.978 5.71159 198.312 8.90822 209.611 13.8147 234.59 24.2225 247.079 42.0642 247.079 67.3401 247.079 70.9085 246.559 75.4432 245.518 80.9445 238.084 120.642 212.659 145.547 169.244 155.657 197.048 185.988 220.168 216.468 238.604 247.096L177.05 269.398C159.357 233.417 135.717 198.18 106.129 163.686L96.9851 156.103 90.9635 174.614C86.8004 187.995 79.3663 215.873 68.6612 258.247L66.654 258.47C47.6228 262.187 25.6922 267.391 0.862402 274.082 9.18857 241.967 19.1502 208.811 30.7474 174.614 37.8841 153.055 49.1096 125.549 64.4238 92.0956 67.5461 85.4049 72.0066 76.3353 77.8051 64.8868 72.8987 66.5223 68.5869 67.7861 64.8698 68.6782L51.7115 7.57008C82.3399 2.96098 108.805 0.656415 131.107 0.656379Z" fill="#FF0000" fill-rule="evenodd" fill-opacity="1"/></g></g></g><path d="M3892.31 593.999C3885.23 594.282 3875.74 596.123 3863.85 599.522L3875.96 605.681C3871.85 612.903 3867.6 621.824 3863.21 632.444 3862.93 633.152 3860.66 639.241 3856.42 650.711L3871.07 650.286C3886.22 649.861 3899.04 647.666 3909.52 643.701 3924.53 637.754 3932.03 628.621 3932.03 616.302 3932.03 607.239 3926.01 600.513 3913.98 596.123 3910.44 594.707 3904.7 593.999 3896.77 593.999ZM3874.89 545.359C3879.71 545.359 3885.16 545.642 3891.25 546.209 3908.1 547.483 3917.73 548.333 3920.14 548.758 3929.06 550.174 3938.9 553.218 3949.66 557.891 3973.45 567.803 3985.34 584.795 3985.34 608.867 3985.34 612.266 3984.85 616.585 3983.86 621.824 3976.78 659.632 3952.56 683.35 3911.22 692.979 3937.7 721.865 3959.71 750.894 3977.27 780.064L3918.65 801.304C3901.8 767.036 3879.28 733.477 3851.11 700.625L3842.4 693.404 3836.66 711.033C3832.7 723.777 3825.62 750.327 3815.42 790.684L3813.51 790.896C3795.39 794.436 3774.5 799.392 3750.85 805.764 3758.78 775.178 3768.27 743.601 3779.31 711.033 3786.11 690.501 3796.8 664.304 3811.39 632.444 3814.36 626.072 3818.61 617.434 3824.13 606.531 3819.46 608.089 3815.35 609.292 3811.81 610.142L3799.28 551.944C3828.45 547.554 3853.65 545.359 3874.89 545.359Z" fill="url(#fill27)" fill-rule="evenodd"/><text fill="#000000" fill-opacity="0" font-family="Arial,Arial_MSFontService,sans-serif" font-size="260.405" direction="ltr" writing-mode="lr-tb" x="3750.85" y="773.214">r</text><g filter="url(#fx12)" transform="translate(3975 551)"><g><g><path d="M235.888 0.604607 220.219 49.9408 200.739 49.9408C164.178 49.9408 135.593 50.7877 114.983 52.4817L125.57 58.6222C123.876 62.2924 119.712 72.0326 113.077 87.8428 111.242 91.9365 109.195 96.736 106.937 102.241L179.988 99.4886 164.531 143.743 92.5382 146.284C87.3152 161.671 81.5982 181.221 75.387 204.937 95.0086 203.807 124.37 202.325 163.472 200.49L147.38 249.403 110.96 249.403C86.1154 249.403 49.5544 253.355 1.27696 261.26L1.27696 260.625C1.27696 259.072 4.24136 247.709 10.1702 226.535 17.2283 201.972 23.51 181.927 29.0153 166.399 38.332 140.426 48.9192 114.24 60.7768 87.8428 65.294 77.9614 70.3758 67.6566 76.0223 56.9283 64.0235 58.1987 52.8011 59.4692 42.3551 60.7396L57.3889 9.92131C80.8218 8.08621 108.842 6.25111 141.451 4.41598 160.931 3.2867 192.41 2.01624 235.888 0.604607Z" fill="#FF0000" fill-rule="evenodd" fill-opacity="1"/></g></g></g><path d="M4188.23 535.059 4173.31 582.046 4154.76 582.046C4119.94 582.046 4092.71 582.852 4073.08 584.466L4083.17 590.314C4081.55 593.809 4077.59 603.086 4071.27 618.143 4069.52 622.042 4067.57 626.613 4065.42 631.856L4134.99 629.234 4120.27 671.381 4051.71 673.801C4046.73 688.455 4041.29 707.075 4035.37 729.661 4054.06 728.585 4082.02 727.174 4119.26 725.426L4103.94 772.01 4069.25 772.01C4045.59 772.01 4010.77 775.774 3964.79 783.303L3964.79 782.698C3964.79 781.219 3967.62 770.396 3973.26 750.23 3979.98 726.838 3985.97 707.747 3991.21 692.959 4000.08 668.222 4010.17 643.283 4021.46 618.143 4025.76 608.732 4030.6 598.918 4035.98 588.701 4024.55 589.911 4013.86 591.12 4003.91 592.33L4018.23 543.932C4040.55 542.184 4067.24 540.437 4098.29 538.689 4116.84 537.613 4146.82 536.403 4188.23 535.059Z" fill="url(#fill28)" fill-rule="evenodd"/><text fill="#000000" fill-opacity="0" font-family="Arial,Arial_MSFontService,sans-serif" font-size="248.244" direction="ltr" writing-mode="lr-tb" x="3964.79" y="752.272">e</text><g filter="url(#fx13)" transform="translate(4161 545)"><g><g><path d="M125.467 0.651699 146.662 50.6395C137.864 50.9061 130.333 51.7059 124.067 53.0389 108.338 56.7713 97.1407 63.1698 90.4757 72.2342 88.2096 75.4334 87.0765 78.766 87.0765 82.2318 87.0765 88.097 90.1424 95.4286 96.2743 104.226 104.406 115.957 109.071 123.155 110.271 125.821 117.736 143.284 121.468 156.88 121.468 166.611L121.468 170.61C119.335 194.738 105.472 215.266 79.8783 232.195 66.015 241.526 43.6205 250.057 12.6947 257.789L1.49741 198.003C13.2279 196.537 23.7586 194.204 33.0897 191.005 55.2176 183.407 66.2816 173.276 66.2816 160.613L66.2816 158.613C66.2816 152.215 64.2154 145.016 60.0831 137.018 57.817 133.686 53.8846 127.554 48.286 118.623 38.2884 102.76 33.2896 89.0301 33.2896 77.4329 33.2896 52.639 42.554 34.7767 61.0829 23.846 75.346 15.5814 96.8074 7.84995 125.467 0.651699Z" fill="#FF0000" fill-rule="evenodd" fill-opacity="1"/></g></g></g><path d="M4269.19 530.028 4289.38 577.636C4281 577.89 4273.83 578.651 4267.86 579.921 4252.88 583.476 4242.22 589.569 4235.87 598.202 4233.71 601.249 4232.63 604.423 4232.63 607.724 4232.63 613.31 4235.55 620.292 4241.39 628.671 4249.14 639.843 4253.58 646.698 4254.72 649.237 4261.83 665.868 4265.39 678.817 4265.39 688.085L4265.39 691.894C4263.35 714.872 4250.15 734.423 4225.78 750.546 4212.57 759.433 4191.24 767.558 4161.79 774.921L4151.13 717.982C4162.3 716.586 4172.33 714.364 4181.22 711.317 4202.29 704.081 4212.83 694.433 4212.83 682.372L4212.83 680.468C4212.83 674.374 4210.86 667.519 4206.92 659.901 4204.77 656.728 4201.02 650.888 4195.69 642.382 4186.17 627.274 4181.41 614.198 4181.41 603.153 4181.41 579.54 4190.23 562.528 4207.88 552.118 4221.46 544.247 4241.9 536.884 4269.19 530.028Z" fill="url(#fill29)" fill-rule="evenodd"/><text fill="#000000" fill-opacity="0" font-family="Arial,Arial_MSFontService,sans-serif" font-size="244.893" direction="ltr" writing-mode="lr-tb" x="4151.13" y="744.309">s</text><g filter="url(#fx14)" transform="translate(1207 674)"><g><g><path d="M234.738 1.47355C255.851 85.682 271.018 164.552 280.24 238.082 281.453 238.082 285.821 229.103 293.344 211.145L304.993 182.752C317.612 153.146 345.398 99.5146 388.352 21.8583L400.364 20.7663C422.205 18.0969 447.443 15.9128 476.079 14.214 450.113 61.5358 422.69 117.715 393.812 182.752 383.62 206.292 368.452 251.308 348.31 317.801 342.729 335.517 332.172 371.19 316.641 424.821L205.981 451.758C206.952 447.633 207.437 441.323 207.437 432.83 207.437 391.089 202.22 335.759 191.785 266.84 187.902 239.66 184.504 226.07 181.592 226.07L143.371 317.801C125.898 359.299 115.342 398.37 111.702 435.014L1.40538 462.315C14.2672 414.75 28.7064 366.579 44.723 317.801 57.0995 280.672 75.4215 235.656 99.6891 182.752 110.367 159.455 125.17 130.334 144.099 95.3891 145.312 91.7489 145.919 88.8368 145.919 86.6527 145.919 80.3432 143.371 70.2721 138.275 56.4396 131.965 38.7243 128.446 28.4105 127.718 25.4984Z" fill="#FF0000" fill-rule="evenodd" fill-opacity="1"/></g></g></g><path d="M1414.1 650.659C1434.21 730.858 1448.65 805.972 1457.44 876.001 1458.59 876.001 1462.75 867.45 1469.92 850.347L1481.01 823.306C1493.03 795.109 1519.49 744.032 1560.4 670.073L1571.84 669.033C1592.64 666.491 1616.68 664.411 1643.95 662.793 1619.22 707.862 1593.1 761.366 1565.6 823.306 1555.89 845.724 1541.45 888.597 1522.27 951.924 1516.95 968.796 1506.9 1002.77 1492.1 1053.85L1386.71 1079.5C1387.64 1075.57 1388.1 1069.56 1388.1 1061.47 1388.1 1021.72 1383.13 969.027 1373.19 903.389 1369.5 877.503 1366.26 864.561 1363.49 864.561L1327.08 951.924C1310.44 991.445 1300.39 1028.66 1296.92 1063.55L1191.88 1089.56C1204.13 1044.26 1217.88 998.379 1233.13 951.924 1244.92 916.563 1262.37 873.69 1285.48 823.306 1295.65 801.118 1309.75 773.384 1327.78 740.103 1328.93 736.636 1329.51 733.862 1329.51 731.782 1329.51 725.773 1327.08 716.182 1322.23 703.008 1316.22 686.136 1312.87 676.314 1312.18 673.54Z" fill="url(#fill30)" fill-rule="evenodd"/><text fill="#000000" fill-opacity="0" font-family="Arial,Arial_MSFontService,sans-serif" font-size="438.896" direction="ltr" writing-mode="lr-tb" x="1191.88" y="1034.69">n</text><g filter="url(#fx15)" transform="translate(924 685)"><g><g><path d="M297.199 102.876C286.605 117.863 264.383 153.78 230.532 210.628L202.625 257.915 265.804 256.752 280.145 267.992C292.031 241.894 297.974 193.961 297.974 124.194 297.974 113.599 297.716 106.493 297.199 102.876ZM373.168 1.32526 375.881 40.8602C377.69 70.8344 378.595 99.6459 378.595 127.295 378.595 181.817 374.589 232.463 366.579 279.233 363.737 287.243 357.535 320.964 347.974 380.396 344.098 404.944 340.093 424.97 335.959 440.473L218.517 469.156C226.786 442.541 242.419 394.995 265.416 326.52L171.23 331.171C151.85 361.92 134.15 401.972 118.129 451.326L0.686954 480.396C4.04613 467.476 19.2916 433.497 46.4235 378.458L74.7181 321.093C101.333 267.088 143.194 200.421 200.3 121.093 231.566 77.4236 262.445 38.6638 292.936 4.81363 311.023 4.29686 337.768 3.13404 373.168 1.32526Z" fill="#FF0000" fill-rule="evenodd" fill-opacity="1"/></g></g></g><path d="M1189.8 756.345C1179.71 770.618 1158.54 804.825 1126.3 858.966L1099.73 904.001 1159.9 902.893 1173.55 913.598C1184.87 888.743 1190.54 843.093 1190.54 776.647 1190.54 766.557 1190.29 759.79 1189.8 756.345ZM1262.15 659.63 1264.73 697.282C1266.45 725.829 1267.32 753.268 1267.32 779.6 1267.32 831.526 1263.5 879.76 1255.87 924.303 1253.17 931.932 1247.26 964.048 1238.15 1020.65 1234.46 1044.03 1230.65 1063.1 1226.71 1077.87L1114.86 1105.18C1122.74 1079.83 1137.62 1034.55 1159.53 969.339L1069.83 973.768C1051.37 1003.05 1034.51 1041.2 1019.25 1088.2L907.404 1115.89C910.603 1103.58 925.123 1071.22 950.963 1018.8L977.91 964.171C1003.26 912.737 1043.12 849.245 1097.51 773.694 1127.29 732.104 1156.7 695.19 1185.74 662.952 1202.96 662.46 1228.43 661.352 1262.15 659.63Z" fill="url(#fill31)" fill-rule="evenodd"/><text fill="#000000" fill-opacity="0" font-family="Arial,Arial_MSFontService,sans-serif" font-size="456.258" direction="ltr" writing-mode="lr-tb" x="907.404" y="1058.86">a</text><g filter="url(#fx16)" transform="translate(2179 599)"><g><g><path d="M315.764 108.403C304.525 124.302 280.95 162.405 245.041 222.712L215.435 272.876 282.458 271.642 297.672 283.567C310.281 255.881 316.586 205.031 316.586 131.018 316.586 119.779 316.312 112.241 315.764 108.403ZM396.355 0.673762 399.234 42.6143C401.152 74.4123 402.112 104.977 402.112 134.308 402.112 192.147 397.863 245.875 389.365 295.491 386.35 303.989 379.771 339.762 369.629 402.809 365.517 428.851 361.268 450.095 356.882 466.543L232.294 496.97C241.066 468.736 257.65 418.297 282.047 345.655L182.13 350.589C161.571 383.21 142.793 425.698 125.798 478.056L1.20987 508.894C4.77344 495.188 20.9466 459.141 49.7293 400.753L79.7456 339.899C107.98 282.607 152.388 211.884 212.968 127.729 246.137 81.4024 278.895 40.2843 311.241 4.37439 330.429 3.82619 358.801 2.59265 396.355 0.673762Z" fill="#FF0000" fill-rule="evenodd" fill-opacity="1"/></g></g></g><path d="M2461.79 674.266C2451.09 689.408 2428.64 725.697 2394.44 783.132L2366.24 830.907 2430.07 829.732 2444.56 841.089C2456.57 814.721 2462.57 766.293 2462.57 695.805 2462.57 685.101 2462.31 677.921 2461.79 674.266ZM2538.55 571.667 2541.29 611.61C2543.11 641.894 2544.03 671.003 2544.03 698.937 2544.03 754.023 2539.98 805.192 2531.89 852.445 2529.02 860.538 2522.75 894.608 2513.09 954.653 2509.18 979.455 2505.13 999.687 2500.95 1015.35L2382.3 1044.33C2390.65 1017.44 2406.45 969.403 2429.68 900.221L2334.52 904.92C2314.94 935.987 2297.06 976.452 2280.87 1026.32L2162.22 1055.69C2165.61 1042.63 2181.01 1008.3 2208.43 952.695L2237.01 894.738C2263.9 840.175 2306.2 772.82 2363.89 692.672 2395.48 648.551 2426.68 609.391 2457.48 575.191 2475.76 574.669 2502.78 573.494 2538.55 571.667Z" fill="url(#fill32)" fill-rule="evenodd"/><text fill="#000000" fill-opacity="0" font-family="Arial,Arial_MSFontService,sans-serif" font-size="484.019" direction="ltr" writing-mode="lr-tb" x="2162.22" y="995.184">a</text></g></g></svg>