<svg xmlns="http://www.w3.org/2000/svg" width="32" height="32" viewBox="0 0 32 32" shape-rendering="crispEdges">
  <g fill="#261307" opacity="0.58">
    <rect x="7" y="10" width="19" height="4"/>
    <rect x="25" y="8" width="4" height="6"/>
    <rect x="5" y="14" width="20" height="4"/>
    <rect x="4" y="18" width="18" height="4"/>
    <rect x="5" y="22" width="15" height="4"/>
    <rect x="8" y="26" width="10" height="4"/>
  </g>

  <g fill="#120a04">
    <rect x="7" y="6" width="18" height="4"/>
    <rect x="25" y="4" width="4" height="4"/>
    <rect x="29" y="8" width="3" height="8"/>
    <rect x="3" y="10" width="4" height="8"/>
    <rect x="7" y="14" width="16" height="4"/>
    <rect x="1" y="18" width="4" height="8"/>
    <rect x="5" y="26" width="4" height="4"/>
    <rect x="9" y="30" width="12" height="2"/>
    <rect x="21" y="26" width="4" height="4"/>
    <rect x="25" y="18" width="4" height="8"/>
    <rect x="13" y="18" width="10" height="4"/>
  </g>

  <g fill="#fde68a">
    <rect x="7" y="10" width="18" height="4"/>
    <rect x="25" y="8" width="4" height="4"/>
    <rect x="5" y="14" width="18" height="4"/>
    <rect x="5" y="18" width="8" height="4"/>
    <rect x="23" y="18" width="2" height="4"/>
    <rect x="5" y="22" width="16" height="4"/>
    <rect x="9" y="26" width="12" height="4"/>
  </g>

  <g fill="#fff7c7">
    <rect x="8" y="10" width="12" height="4"/>
    <rect x="6" y="14" width="10" height="4"/>
    <rect x="5" y="18" width="5" height="4"/>
  </g>

  <g fill="#a16207">
    <rect x="13" y="18" width="10" height="4"/>
    <rect x="9" y="22" width="12" height="4"/>
    <rect x="21" y="22" width="4" height="4"/>
  </g>

  <g fill="#3b2410">
    <rect x="25" y="8" width="4" height="2"/>
    <rect x="16" y="14" width="7" height="2"/>
    <rect x="13" y="18" width="10" height="2"/>
    <rect x="9" y="22" width="12" height="2"/>
  </g>
</svg>
